<svg height="859" viewBox="0 0 100 859" width="100" xmlns="http://www.w3.org/2000/svg"><g fill="none" fill-rule="evenodd"><path d="m-247.342 598.758c1.608 0 3.35-.089333 5.226-.268s3.975333-.491333 6.298-.938v-31.222c.714667.178667 1.943.335 3.685.469s3.461667.201 5.159.201c4.288 0 8.464333-.536 12.529-1.608s7.682667-2.858667 10.854-5.36 5.717333-5.851333 7.638-10.05 2.881-9.469333 2.881-15.812c0-7.146667-1.206-12.953333-3.618-17.42s-5.561-7.928333-9.447-10.385-8.241-4.131667-13.065-5.025-9.603333-1.34-14.338-1.34c-6.432 0-11.769667.245667-16.013.737s-7.392333.871-9.447 1.139v95.676c4.645333.804 8.531333 1.206 11.658 1.206zm17.152-51.054c-1.161333 0-2.278-.044667-3.35-.134s-1.831333-.223333-2.278-.402v-27.068c.714667-.089333 1.429333-.134 2.144-.134h1.876c1.965333 0 3.841333.223333 5.628.67s3.35 1.228333 4.69 2.345 2.389667 2.590667 3.149 4.422 1.139 4.087 1.139 6.767c0 4.556-1.206 7.950667-3.618 10.184s-5.538667 3.35-9.38 3.35zm77.988 51.858c8.308 0 16.437333-1.474 24.388-4.422-.089333-3.484-.603-6.834-1.541-10.05s-2.032333-5.985333-3.283-8.308c-3.126667 1.250667-6.298 2.188667-9.514 2.814s-6.119333.938-8.71.938c-4.02 0-7.258333-.759333-9.715-2.278s-4.176333-4.109333-5.159-7.772h40.736c.178667-1.250667.379667-2.836333.603-4.757s.335-4.087.335-6.499c0-4.645333-.692333-8.955667-2.077-12.931s-3.372333-7.37-5.963-10.184-5.739667-5.025-9.447-6.633-7.928333-2.412-12.663-2.412c-5.717333 0-10.72.960333-15.008 2.881s-7.861333 4.533667-10.72 7.839-5.002667 7.191333-6.432 11.658-2.144 9.246-2.144 14.338c0 5.181333.692333 9.960667 2.077 14.338s3.528667 8.151667 6.432 11.323 6.655333 5.650333 11.256 7.437 10.117 2.68 16.549 2.68zm7.638-44.488h-21.44c.357333-3.752 1.563333-6.521333 3.618-8.308s4.511333-2.68 7.37-2.68c3.305333 0 5.829 1.049667 7.571 3.149s2.702333 4.712333 2.881 7.839zm83.348 42.88c.3573333-1.876.603-3.506333.737-4.891s.201-2.747.201-4.087c0-2.590667-.3126667-5.717333-.938-9.38h-25.594l28.14-46.632-1.34-4.288h-54.538c-.446667 1.876-.737 3.506333-.871 4.891s-.201 2.747-.201 4.087.067 2.747.201 4.221.424333 3.193667.871 5.159h22.914l-28.006 46.9 2.144 4.02zm64.454 0c.35733333-1.876.603-3.506333.737-4.891s.201-2.747.201-4.087c0-2.590667-.31266667-5.717333-.938-9.38h-25.594l28.14-46.632-1.34-4.288h-54.538c-.4466667 1.876-.737 3.506333-.871 4.891s-.201 2.747-.201 4.087.067 2.747.201 4.221.4243333 3.193667.871 5.159h22.914l-28.006 46.9 2.144 4.02zm40.736 1.474c5.36 0 10.452-.491333 15.276-1.474s8.9333333-1.965333 12.328-2.948v-39.262c0-5.002667-.7146667-9.313-2.144-12.931s-3.4616667-6.588333-6.097-8.911-5.829-4.042333-9.581-5.159-7.9506667-1.675-12.596-1.675c-3.3946667 0-7.2136667.357333-11.457 1.072s-8.509 1.786667-12.797 3.216c0 1.786667.067 3.372333.201 4.757s.3573333 2.724667.67 4.02.7593333 2.568333 1.34 3.819 1.273 2.635333 2.077 4.154c3.0373333-1.072 5.9853333-1.853667 8.844-2.345s5.36-.737 7.504-.737c1.608 0 3.1713333.111667 4.69.335s2.9033333.625333 4.154 1.206 2.278 1.407 3.082 2.479 1.2506667 2.412 1.34 4.02h-8.174c-3.3946667 0-6.8786667.335-10.452 1.005s-6.834 1.853667-9.782 3.551-5.36 3.975333-7.236 6.834-2.814 6.476667-2.814 10.854c0 4.466667.7816667 8.241 2.345 11.323s3.7296667 5.561 6.499 7.437 6.097 3.238333 9.983 4.087 8.1516667 1.273 12.797 1.273zm0-16.616c-1.1613333 0-2.4343333-.089333-3.819-.268s-2.68-.536-3.886-1.072-2.211-1.317667-3.015-2.345-1.206-2.434333-1.206-4.221c0-2.412 1.072-4.288 3.216-5.628s4.7793333-2.01 7.906-2.01h7.638v14.74c-.7146667.178667-1.8313333.357333-3.35.536s-2.68.268-3.484.268zm97.15 15.142c.446667-2.322667.737-4.310333.871-5.963s.201-3.238333.201-4.757c0-1.34-.067-2.836333-.201-4.489s-.424333-3.595667-.871-5.829h-30.954v-75.04c-2.322667-.357333-4.489-.625333-6.499-.804s-3.819-.268-5.427-.268c-1.5186667 0-3.2606667.089333-5.226.268s-4.154.446667-6.566.804v96.078zm40.334 1.608c5.717333 0 10.72-.848667 15.008-2.546s7.883667-4.131667 10.787-7.303 5.092-6.968 6.566-11.39 2.211-9.313 2.211-14.673c0-5.449333-.737-10.429667-2.211-14.941s-3.662667-8.375-6.566-11.591-6.499-5.695-10.787-7.437-9.290667-2.613-15.008-2.613c-5.628 0-10.586.871-14.874 2.613s-7.883667 4.221-10.787 7.437-5.092 7.079667-6.566 11.591-2.211 9.491667-2.211 14.941c0 5.36.737 10.251 2.211 14.673s3.662667 8.218667 6.566 11.39 6.499 5.605667 10.787 7.303 9.246 2.546 14.874 2.546zm0-18.358c-3.930667 0-6.834-1.518667-8.71-4.556s-2.814-7.37-2.814-12.998c0-5.717333.938-10.094667 2.814-13.132s4.779333-4.556 8.71-4.556 6.856333 1.518667 8.777 4.556 2.881 7.414667 2.881 13.132c0 5.628-.960333 9.960667-2.881 12.998s-4.846333 4.556-8.777 4.556zm74.37 18.224c5.36 0 10.452-.491333 15.276-1.474s8.933333-1.965333 12.328-2.948v-39.262c0-5.002667-.714667-9.313-2.144-12.931s-3.461667-6.588333-6.097-8.911-5.829-4.042333-9.581-5.159-7.950667-1.675-12.596-1.675c-3.394667 0-7.213667.357333-11.457 1.072s-8.509 1.786667-12.797 3.216c0 1.786667.067 3.372333.201 4.757s.357333 2.724667.67 4.02.759333 2.568333 1.34 3.819 1.273 2.635333 2.077 4.154c3.037333-1.072 5.985333-1.853667 8.844-2.345s5.36-.737 7.504-.737c1.608 0 3.171333.111667 4.69.335s2.903333.625333 4.154 1.206 2.278 1.407 3.082 2.479 1.250667 2.412 1.34 4.02h-8.174c-3.394667 0-6.878667.335-10.452 1.005s-6.834 1.853667-9.782 3.551-5.36 3.975333-7.236 6.834-2.814 6.476667-2.814 10.854c0 4.466667.781667 8.241 2.345 11.323s3.729667 5.561 6.499 7.437 6.097 3.238333 9.983 4.087 8.151667 1.273 12.797 1.273zm0-16.616c-1.161333 0-2.434333-.089333-3.819-.268s-2.68-.536-3.886-1.072-2.211-1.317667-3.015-2.345-1.206-2.434333-1.206-4.221c0-2.412 1.072-4.288 3.216-5.628s4.779333-2.01 7.906-2.01h7.638v14.74c-.714667.178667-1.831333.357333-3.35.536s-2.68.268-3.484.268zm92.058 16.08c1.429333 0 3.082-.067 4.958-.201s3.975333-.424333 6.298-.871v-40.066c0-6.610667-1.005-11.926-3.015-15.946s-4.600667-7.102-7.772-9.246-6.722333-3.551-10.653-4.221-7.861333-1.005-11.792-1.005c-6.7 0-12.283333.513667-16.75 1.541s-8.263333 2.077-11.39 3.149v65.794c2.322667.446667 4.422.737 6.298.871s3.573333.201 5.092.201c1.429333 0 3.082-.067 4.958-.201s3.975333-.424333 6.298-.871v-50.116c.268-.178667.960333-.357333 2.077-.536s2.166333-.268 3.149-.268c3.662667 0 6.387333 1.027333 8.174 3.082s2.68 5.449333 2.68 10.184v37.654c2.322667.446667 4.422.737 6.298.871s3.573333.201 5.092.201z" fill="#92dbe9" fill-rule="nonzero" opacity=".1" transform="matrix(0 1 -1 0 599.852 499.71)"/><path d="m50 169.746644v11.527754l-24.4290179 18.725602-25.5709821-18.063051v-11.219808l25.3606203 17.913744zm0-21.220274v11.527754l-24.4290179 18.725601-25.5709821-18.05994v-11.222919l25.3606203 17.916855zm0-21.217164v11.527754l-24.4290179 18.725601-25.5709821-18.063051v-11.219808l25.3606203 17.916855zm0-21.220275v11.527754l-24.4290179 18.728712-25.5709821-18.063051v-11.219808l25.3606203 17.916855zm0-21.2140535v11.527754l-24.4290179 18.7256015-25.5709821-18.0630511v-11.2229187l25.3606203 17.9168548zm0-21.2202746v11.527754l-24.4290179 18.7256015-25.5709821-18.0599406v-11.2229187l25.3606203 17.9168546zm0-21.2202747v11.527754l-24.4290179 18.7287121-25.5709821-18.0630512v-11.219808l25.3606203 17.9168545zm0-21.2171641v11.527754l-24.4290179 18.7287121-25.5709821-18.0630512v-11.219808l25.3606203 17.913744zm0-21.2171641v11.527754l-24.4290179 18.7256015-25.5709821-18.0630511v-11.21980811l25.3606203 17.91685461z" fill="#35b5cd" opacity=".098263"/></g></svg>