<svg height="406" viewBox="0 0 699 406" width="699" xmlns="http://www.w3.org/2000/svg" xmlns:xlink="http://www.w3.org/1999/xlink"><linearGradient id="a" x1="50%" x2="50%" y1="9.430195%" y2="110.493539%"><stop offset="0" stop-color="#65dbe8"/><stop offset="1" stop-color="#35b5cd"/></linearGradient><g fill="none"><g fill="url(#a)"><path d="m194.179001 126.149994h77.617995v207.861733h-77.617995z"/><path d="m453.630665 103.904379h77.617995v230.094927h-77.617995z"/><path d="m330.361606 35.552834h66.519057v298.446472h-66.519057z"/><path d="m522.225335 167.014356h66.519057v166.98495h-66.519057z"/><path d="m116.461576 79.236712h80.141046v254.762593h-80.141046z"/><path d="m388.864073 151.823744h80.141046v182.175562h-80.141046z"/><path d="m268.354212 73.063585h65.997046v260.93572h-65.997046z"/></g><g fill="#84e5f2"><path d="m129.449695 96.725169h9.955487v9.949044h-9.955487z"/><path d="m144.401568 96.725169h9.955487v9.949044h-9.955487z"/><path d="m159.36587 96.725169h9.955487v9.949044h-9.955487z"/><path d="m174.317743 96.725169h9.955487v9.949044h-9.955487z"/><path d="m202.183163 140.632622h6.86071v17.103412h-6.86071z"/><path d="m218.365489 140.632622h6.86071v17.103412h-6.86071z"/><path d="m234.547816 140.632622h6.86071v17.103412h-6.86071z"/><path d="m250.730142 140.632622h6.86071v17.103412h-6.86071z"/><path d="m402.473633 160.816388h6.152267v19.45094h-6.152267z"/><path d="m416.978069 160.816388h6.152267v19.45094h-6.152267z"/><path d="m431.482504 160.816388h6.152267v19.45094h-6.152267z"/><path d="m445.999369 160.816388h6.152267v19.45094h-6.152267z"/><path d="m532.690404 176.056683h6.152267v9.564h-6.152267z"/><path d="m547.194839 176.056683h6.152267v9.564h-6.152267z"/><path d="m561.711704 176.056683h6.152267v9.564h-6.152267z"/><path d="m576.216139 176.056683h6.152267v9.564h-6.152267z"/><path d="m532.690404 194.178599h6.152267v9.564h-6.152267z"/><path d="m547.194839 194.178599h6.152267v9.564h-6.152267z"/><path d="m561.711704 194.178599h6.152267v9.564h-6.152267z"/><path d="m576.216139 194.178599h6.152267v9.564h-6.152267z"/><path d="m532.690404 212.300516h6.152267v9.564h-6.152267z"/><path d="m547.194839 212.300516h6.152267v9.564h-6.152267z"/><path d="m561.711704 212.300516h6.152267v9.564h-6.152267z"/><path d="m576.216139 212.300516h6.152267v9.564h-6.152267z"/><path d="m532.690404 230.410011h6.152267v9.564h-6.152267z"/><path d="m547.194839 230.410011h6.152267v9.564h-6.152267z"/><path d="m561.711704 230.410011h6.152267v9.564h-6.152267z"/><path d="m576.216139 230.410011h6.152267v9.564h-6.152267z"/><path d="m532.690404 248.531927h6.152267v9.564h-6.152267z"/><path d="m547.194839 248.531927h6.152267v9.564h-6.152267z"/><path d="m561.711704 248.531927h6.152267v9.564h-6.152267z"/><path d="m576.216139 248.531927h6.152267v9.564h-6.152267z"/><path d="m532.690404 266.653843h6.152267v9.564h-6.152267z"/><path d="m547.194839 266.653843h6.152267v9.564h-6.152267z"/><path d="m561.711704 266.653843h6.152267v9.564h-6.152267z"/><path d="m576.216139 266.653843h6.152267v9.564h-6.152267z"/><path d="m532.690404 284.77576h6.152267v9.564h-6.152267z"/><path d="m547.194839 284.77576h6.152267v9.564h-6.152267z"/><path d="m561.711704 284.77576h6.152267v9.564h-6.152267z"/><path d="m576.216139 284.77576h6.152267v9.564h-6.152267z"/><path d="m532.690404 302.897676h6.152267v9.564h-6.152267z"/><path d="m547.194839 302.897676h6.152267v9.564h-6.152267z"/><path d="m561.711704 302.897676h6.152267v9.564h-6.152267z"/><path d="m576.216139 302.897676h6.152267v9.564h-6.152267z"/><path d="m402.473633 187.583166h6.152267v19.45094h-6.152267z"/><path d="m416.978069 187.583166h6.152267v19.45094h-6.152267z"/><path d="m431.482504 187.583166h6.152267v19.45094h-6.152267z"/><path d="m445.999369 187.583166h6.152267v19.45094h-6.152267z"/><path d="m402.473633 214.349944h6.152267v19.45094h-6.152267z"/><path d="m416.978069 214.349944h6.152267v19.45094h-6.152267z"/><path d="m431.482504 214.349944h6.152267v19.45094h-6.152267z"/><path d="m445.999369 214.349944h6.152267v19.45094h-6.152267z"/><path d="m402.473633 241.116722h6.152267v19.45094h-6.152267z"/><path d="m416.978069 241.116722h6.152267v19.45094h-6.152267z"/><path d="m431.482504 241.116722h6.152267v19.45094h-6.152267z"/><path d="m445.999369 241.116722h6.152267v19.45094h-6.152267z"/><path d="m402.473633 267.895921h6.152267v19.45094h-6.152267z"/><path d="m416.978069 267.895921h6.152267v19.45094h-6.152267z"/><path d="m431.482504 267.895921h6.152267v19.45094h-6.152267z"/><path d="m445.999369 267.895921h6.152267v19.45094h-6.152267z"/><path d="m402.473633 294.6627h6.152267v19.45094h-6.152267z"/><path d="m416.978069 294.6627h6.152267v19.45094h-6.152267z"/><path d="m431.482504 294.6627h6.152267v19.45094h-6.152267z"/><path d="m445.999369 294.6627h6.152267v19.45094h-6.152267z"/><path d="m202.183163 171.001426h6.86071v17.103412h-6.86071z"/><path d="m218.365489 171.001426h6.86071v17.103412h-6.86071z"/><path d="m234.547816 171.001426h6.86071v17.103412h-6.86071z"/><path d="m250.730142 171.001426h6.86071v17.103412h-6.86071z"/><path d="m202.183163 201.382651h6.86071v17.103412h-6.86071z"/><path d="m218.365489 201.382651h6.86071v17.103412h-6.86071z"/><path d="m234.547816 201.382651h6.86071v17.103412h-6.86071z"/><path d="m250.730142 201.382651h6.86071v17.103412h-6.86071z"/><path d="m202.183163 231.751455h6.86071v17.103412h-6.86071z"/><path d="m218.365489 231.751455h6.86071v17.103412h-6.86071z"/><path d="m234.547816 231.751455h6.86071v17.103412h-6.86071z"/><path d="m250.730142 231.751455h6.86071v17.103412h-6.86071z"/><path d="m202.183163 262.13268h6.86071v17.103412h-6.86071z"/><path d="m218.365489 262.13268h6.86071v17.103412h-6.86071z"/><path d="m234.547816 262.13268h6.86071v17.103412h-6.86071z"/><path d="m250.730142 262.13268h6.86071v17.103412h-6.86071z"/><path d="m202.183163 292.513905h6.86071v17.103412h-6.86071z"/><path d="m218.365489 292.513905h6.86071v17.103412h-6.86071z"/><path d="m234.547816 292.513905h6.86071v17.103412h-6.86071z"/><path d="m250.730142 292.513905h6.86071v17.103412h-6.86071z"/><path d="m129.449695 116.18853h9.955487v9.949044h-9.955487z"/><path d="m144.401568 116.18853h9.955487v9.949044h-9.955487z"/><path d="m159.36587 116.18853h9.955487v9.949044h-9.955487z"/><path d="m174.317743 116.18853h9.955487v9.949044h-9.955487z"/><path d="m129.449695 135.65189h9.955487v9.949044h-9.955487z"/><path d="m144.401568 135.65189h9.955487v9.949044h-9.955487z"/><path d="m159.36587 135.65189h9.955487v9.949044h-9.955487z"/><path d="m174.317743 135.65189h9.955487v9.949044h-9.955487z"/><path d="m129.449695 155.11525h9.955487v9.949044h-9.955487z"/><path d="m144.401568 155.11525h9.955487v9.949044h-9.955487z"/><path d="m159.36587 155.11525h9.955487v9.949044h-9.955487z"/><path d="m174.317743 155.11525h9.955487v9.949044h-9.955487z"/><path d="m465.699052 113.108176h9.955487v9.949044h-9.955487z"/><path d="m480.663354 113.108176h9.955487v9.949044h-9.955487z"/><path d="m495.615227 113.108176h9.955487v9.949044h-9.955487z"/><path d="m510.579529 113.108176h9.955487v9.949044h-9.955487z"/><path d="m465.699052 130.410321h9.955487v9.949044h-9.955487z"/><path d="m480.663354 130.410321h9.955487v9.949044h-9.955487z"/><path d="m495.615227 130.410321h9.955487v9.949044h-9.955487z"/><path d="m510.579529 130.410321h9.955487v9.949044h-9.955487z"/><path d="m465.699052 147.700045h9.955487v9.949044h-9.955487z"/><path d="m480.663354 147.700045h9.955487v9.949044h-9.955487z"/><path d="m495.615227 147.700045h9.955487v9.949044h-9.955487z"/><path d="m510.579529 147.700045h9.955487v9.949044h-9.955487z"/><path d="m465.699052 164.989769h9.955487v9.949044h-9.955487z"/><path d="m480.663354 164.989769h9.955487v9.949044h-9.955487z"/><path d="m495.615227 164.989769h9.955487v9.949044h-9.955487z"/><path d="m510.579529 164.989769h9.955487v9.949044h-9.955487z"/><path d="m465.699052 182.291914h9.955487v9.949044h-9.955487z"/><path d="m480.663354 182.291914h9.955487v9.949044h-9.955487z"/><path d="m495.615227 182.291914h9.955487v9.949044h-9.955487z"/><path d="m510.579529 182.291914h9.955487v9.949044h-9.955487z"/><path d="m465.699052 199.581638h9.955487v9.949044h-9.955487z"/><path d="m480.663354 199.581638h9.955487v9.949044h-9.955487z"/><path d="m495.615227 199.581638h9.955487v9.949044h-9.955487z"/><path d="m510.579529 199.581638h9.955487v9.949044h-9.955487z"/><path d="m465.699052 216.871362h9.955487v9.949044h-9.955487z"/><path d="m480.663354 216.871362h9.955487v9.949044h-9.955487z"/><path d="m495.615227 216.871362h9.955487v9.949044h-9.955487z"/><path d="m510.579529 216.871362h9.955487v9.949044h-9.955487z"/><path d="m465.699052 234.173507h9.955487v9.949044h-9.955487z"/><path d="m480.663354 234.173507h9.955487v9.949044h-9.955487z"/><path d="m495.615227 234.173507h9.955487v9.949044h-9.955487z"/><path d="m510.579529 234.173507h9.955487v9.949044h-9.955487z"/><path d="m465.699052 251.463231h9.955487v9.949044h-9.955487z"/><path d="m480.663354 251.463231h9.955487v9.949044h-9.955487z"/><path d="m495.615227 251.463231h9.955487v9.949044h-9.955487z"/><path d="m510.579529 251.463231h9.955487v9.949044h-9.955487z"/><path d="m465.699052 268.752955h9.955487v9.949044h-9.955487z"/><path d="m480.663354 268.752955h9.955487v9.949044h-9.955487z"/><path d="m495.615227 268.752955h9.955487v9.949044h-9.955487z"/><path d="m510.579529 268.752955h9.955487v9.949044h-9.955487z"/><path d="m465.699052 286.0551h9.955487v9.949044h-9.955487z"/><path d="m480.663354 286.0551h9.955487v9.949044h-9.955487z"/><path d="m495.615227 286.0551h9.955487v9.949044h-9.955487z"/><path d="m510.579529 286.0551h9.955487v9.949044h-9.955487z"/><path d="m465.699052 303.344824h9.955487v9.949044h-9.955487z"/><path d="m480.663354 303.344824h9.955487v9.949044h-9.955487z"/><path d="m495.615227 303.344824h9.955487v9.949044h-9.955487z"/><path d="m510.579529 303.344824h9.955487v9.949044h-9.955487z"/><path d="m129.449695 174.57861h9.955487v9.949044h-9.955487z"/><path d="m144.401568 174.57861h9.955487v9.949044h-9.955487z"/><path d="m159.36587 174.57861h9.955487v9.949044h-9.955487z"/><path d="m174.317743 174.57861h9.955487v9.949044h-9.955487z"/><path d="m129.449695 194.041971h9.955487v9.949044h-9.955487z"/><path d="m144.401568 194.041971h9.955487v9.949044h-9.955487z"/><path d="m159.36587 194.041971h9.955487v9.949044h-9.955487z"/><path d="m174.317743 194.041971h9.955487v9.949044h-9.955487z"/><path d="m129.449695 213.505331h9.955487v9.949044h-9.955487z"/><path d="m144.401568 213.505331h9.955487v9.949044h-9.955487z"/><path d="m159.36587 213.505331h9.955487v9.949044h-9.955487z"/><path d="m174.317743 213.505331h9.955487v9.949044h-9.955487z"/><path d="m129.449695 232.968691h9.955487v9.949044h-9.955487z"/><path d="m144.401568 232.968691h9.955487v9.949044h-9.955487z"/><path d="m159.36587 232.968691h9.955487v9.949044h-9.955487z"/><path d="m174.317743 232.968691h9.955487v9.949044h-9.955487z"/><path d="m129.449695 252.432052h9.955487v9.949044h-9.955487z"/><path d="m144.401568 252.432052h9.955487v9.949044h-9.955487z"/><path d="m159.36587 252.432052h9.955487v9.949044h-9.955487z"/><path d="m174.317743 252.432052h9.955487v9.949044h-9.955487z"/><path d="m129.449695 271.895412h9.955487v9.949044h-9.955487z"/><path d="m144.401568 271.895412h9.955487v9.949044h-9.955487z"/><path d="m159.36587 271.895412h9.955487v9.949044h-9.955487z"/><path d="m174.317743 271.895412h9.955487v9.949044h-9.955487z"/><path d="m129.449695 291.358772h9.955487v9.949044h-9.955487z"/><path d="m144.401568 291.358772h9.955487v9.949044h-9.955487z"/><path d="m159.36587 291.358772h9.955487v9.949044h-9.955487z"/><path d="m174.317743 291.358772h9.955487v9.949044h-9.955487z"/><path d="m275.127921 88.539876h6.177125v6.173127h-6.177125z"/><path d="m284.399822 88.539876h6.177125v6.173127h-6.177125z"/><path d="m293.671723 88.539876h6.177125v6.173127h-6.177125z"/><path d="m302.943625 88.539876h6.177125v6.173127h-6.177125z"/><path d="m311.817804 88.539876h6.177125v6.173127h-6.177125z"/><path d="m320.679554 88.539876h6.177125v6.173127h-6.177125z"/><path d="m275.127921 103.047346h6.177125v6.173127h-6.177125z"/><path d="m284.399822 103.047346h6.177125v6.173127h-6.177125z"/><path d="m293.671723 103.047346h6.177125v6.173127h-6.177125z"/><path d="m302.943625 103.047346h6.177125v6.173127h-6.177125z"/><path d="m311.817804 103.047346h6.177125v6.173127h-6.177125z"/><path d="m320.679554 103.047346h6.177125v6.173127h-6.177125z"/><path d="m275.127921 117.542394h6.177125v6.173127h-6.177125z"/><path d="m284.399822 117.542394h6.177125v6.173127h-6.177125z"/><path d="m293.671723 117.542394h6.177125v6.173127h-6.177125z"/><path d="m302.943625 117.542394h6.177125v6.173127h-6.177125z"/><path d="m311.817804 117.542394h6.177125v6.173127h-6.177125z"/><path d="m320.679554 117.542394h6.177125v6.173127h-6.177125z"/><path d="m275.127921 132.037443h6.177125v6.173127h-6.177125z"/><path d="m284.399822 132.037443h6.177125v6.173127h-6.177125z"/><path d="m293.671723 132.037443h6.177125v6.173127h-6.177125z"/><path d="m302.943625 132.037443h6.177125v6.173127h-6.177125z"/><path d="m311.817804 132.037443h6.177125v6.173127h-6.177125z"/><path d="m320.679554 132.037443h6.177125v6.173127h-6.177125z"/><path d="m275.127921 146.532492h6.177125v6.173127h-6.177125z"/><path d="m284.399822 146.532492h6.177125v6.173127h-6.177125z"/><path d="m293.671723 146.532492h6.177125v6.173127h-6.177125z"/><path d="m302.943625 146.532492h6.177125v6.173127h-6.177125z"/><path d="m311.817804 146.532492h6.177125v6.173127h-6.177125z"/><path d="m320.679554 146.532492h6.177125v6.173127h-6.177125z"/><path d="m275.127921 161.027541h6.177125v6.173127h-6.177125z"/><path d="m284.399822 161.027541h6.177125v6.173127h-6.177125z"/><path d="m293.671723 161.027541h6.177125v6.173127h-6.177125z"/><path d="m302.943625 161.027541h6.177125v6.173127h-6.177125z"/><path d="m311.817804 161.027541h6.177125v6.173127h-6.177125z"/><path d="m320.679554 161.027541h6.177125v6.173127h-6.177125z"/><path d="m275.127921 175.52259h6.177125v6.173127h-6.177125z"/><path d="m284.399822 175.52259h6.177125v6.173127h-6.177125z"/><path d="m293.671723 175.52259h6.177125v6.173127h-6.177125z"/><path d="m302.943625 175.52259h6.177125v6.173127h-6.177125z"/><path d="m311.817804 175.52259h6.177125v6.173127h-6.177125z"/><path d="m320.679554 175.52259h6.177125v6.173127h-6.177125z"/><path d="m275.127921 190.017638h6.177125v6.173127h-6.177125z"/><path d="m284.399822 190.017638h6.177125v6.173127h-6.177125z"/><path d="m293.671723 190.017638h6.177125v6.173127h-6.177125z"/><path d="m302.943625 190.017638h6.177125v6.173127h-6.177125z"/><path d="m311.817804 190.017638h6.177125v6.173127h-6.177125z"/><path d="m320.679554 190.017638h6.177125v6.173127h-6.177125z"/><path d="m275.127921 204.512687h6.177125v6.173127h-6.177125z"/><path d="m284.399822 204.512687h6.177125v6.173127h-6.177125z"/><path d="m293.671723 204.512687h6.177125v6.173127h-6.177125z"/><path d="m302.943625 204.512687h6.177125v6.173127h-6.177125z"/><path d="m311.817804 204.512687h6.177125v6.173127h-6.177125z"/><path d="m320.679554 204.512687h6.177125v6.173127h-6.177125z"/><path d="m275.127921 219.007736h6.177125v6.173127h-6.177125z"/><path d="m284.399822 219.007736h6.177125v6.173127h-6.177125z"/><path d="m293.671723 219.007736h6.177125v6.173127h-6.177125z"/><path d="m302.943625 219.007736h6.177125v6.173127h-6.177125z"/><path d="m311.817804 219.007736h6.177125v6.173127h-6.177125z"/><path d="m320.679554 219.007736h6.177125v6.173127h-6.177125z"/><path d="m275.127921 233.515206h6.177125v6.173127h-6.177125z"/><path d="m284.399822 233.515206h6.177125v6.173127h-6.177125z"/><path d="m293.671723 233.515206h6.177125v6.173127h-6.177125z"/><path d="m302.943625 233.515206h6.177125v6.173127h-6.177125z"/><path d="m311.817804 233.515206h6.177125v6.173127h-6.177125z"/><path d="m320.679554 233.515206h6.177125v6.173127h-6.177125z"/><path d="m275.127921 248.010255h6.177125v6.173127h-6.177125z"/><path d="m284.399822 248.010255h6.177125v6.173127h-6.177125z"/><path d="m293.671723 248.010255h6.177125v6.173127h-6.177125z"/><path d="m302.943625 248.010255h6.177125v6.173127h-6.177125z"/><path d="m311.817804 248.010255h6.177125v6.173127h-6.177125z"/><path d="m320.679554 248.010255h6.177125v6.173127h-6.177125z"/><path d="m275.127921 262.505303h6.177125v6.173127h-6.177125z"/><path d="m284.399822 262.505303h6.177125v6.173127h-6.177125z"/><path d="m293.671723 262.505303h6.177125v6.173127h-6.177125z"/><path d="m302.943625 262.505303h6.177125v6.173127h-6.177125z"/><path d="m311.817804 262.505303h6.177125v6.173127h-6.177125z"/><path d="m320.679554 262.505303h6.177125v6.173127h-6.177125z"/><path d="m275.127921 277.000352h6.177125v6.173127h-6.177125z"/><path d="m284.399822 277.000352h6.177125v6.173127h-6.177125z"/><path d="m293.671723 277.000352h6.177125v6.173127h-6.177125z"/><path d="m302.943625 277.000352h6.177125v6.173127h-6.177125z"/><path d="m311.817804 277.000352h6.177125v6.173127h-6.177125z"/><path d="m320.679554 277.000352h6.177125v6.173127h-6.177125z"/><path d="m275.127921 291.495401h6.177125v6.173127h-6.177125z"/><path d="m284.399822 291.495401h6.177125v6.173127h-6.177125z"/><path d="m293.671723 291.495401h6.177125v6.173127h-6.177125z"/><path d="m302.943625 291.495401h6.177125v6.173127h-6.177125z"/><path d="m311.817804 291.495401h6.177125v6.173127h-6.177125z"/><path d="m320.679554 291.495401h6.177125v6.173127h-6.177125z"/><path d="m275.127921 305.99045h6.177125v6.173127h-6.177125z"/><path d="m284.399822 305.99045h6.177125v6.173127h-6.177125z"/><path d="m293.671723 305.99045h6.177125v6.173127h-6.177125z"/><path d="m302.943625 305.99045h6.177125v6.173127h-6.177125z"/><path d="m311.817804 305.99045h6.177125v6.173127h-6.177125z"/><path d="m320.679554 305.99045h6.177125v6.173127h-6.177125z"/><path d="m338.142049 45.924184h6.177125v6.173127h-6.177125z"/><path d="m347.413951 45.924184h6.177125v6.173127h-6.177125z"/><path d="m356.685852 45.924184h6.177125v6.173127h-6.177125z"/><path d="m365.957753 45.924184h6.177125v6.173127h-6.177125z"/><path d="m374.819504 45.924184h6.177125v6.173127h-6.177125z"/><path d="m383.693683 45.924184h6.177125v6.173127h-6.177125z"/><path d="m338.142049 60.419233h6.177125v6.173127h-6.177125z"/><path d="m347.413951 60.419233h6.177125v6.173127h-6.177125z"/><path d="m356.685852 60.419233h6.177125v6.173127h-6.177125z"/><path d="m365.957753 60.419233h6.177125v6.173127h-6.177125z"/><path d="m374.819504 60.419233h6.177125v6.173127h-6.177125z"/><path d="m383.693683 60.419233h6.177125v6.173127h-6.177125z"/><path d="m338.142049 74.914282h6.177125v6.173127h-6.177125z"/><path d="m347.413951 74.914282h6.177125v6.173127h-6.177125z"/><path d="m356.685852 74.914282h6.177125v6.173127h-6.177125z"/><path d="m365.957753 74.914282h6.177125v6.173127h-6.177125z"/><path d="m374.819504 74.914282h6.177125v6.173127h-6.177125z"/><path d="m383.693683 74.914282h6.177125v6.173127h-6.177125z"/><path d="m338.142049 280.47817h6.177125v6.173127h-6.177125z"/><path d="m347.413951 280.47817h6.177125v6.173127h-6.177125z"/><path d="m356.685852 280.47817h6.177125v6.173127h-6.177125z"/><path d="m365.957753 280.47817h6.177125v6.173127h-6.177125z"/><path d="m374.819504 280.47817h6.177125v6.173127h-6.177125z"/><path d="m383.693683 280.47817h6.177125v6.173127h-6.177125z"/><path d="m338.142049 297.979048h6.177125v6.173127h-6.177125z"/><path d="m347.413951 297.979048h6.177125v6.173127h-6.177125z"/><path d="m356.685852 297.979048h6.177125v6.173127h-6.177125z"/><path d="m365.957753 297.979048h6.177125v6.173127h-6.177125z"/><path d="m374.819504 297.979048h6.177125v6.173127h-6.177125z"/><path d="m383.693683 297.979048h6.177125v6.173127h-6.177125z"/><path d="m338.142049 89.409331h6.177125v6.173127h-6.177125z"/><path d="m347.413951 89.409331h6.177125v6.173127h-6.177125z"/><path d="m356.685852 89.409331h6.177125v6.173127h-6.177125z"/><path d="m365.957753 89.409331h6.177125v6.173127h-6.177125z"/><path d="m374.819504 89.409331h6.177125v6.173127h-6.177125z"/><path d="m383.693683 89.409331h6.177125v6.173127h-6.177125z"/><path d="m338.142049 103.904379h6.177125v6.173127h-6.177125z"/><path d="m347.413951 103.904379h6.177125v6.173127h-6.177125z"/><path d="m356.685852 103.904379h6.177125v6.173127h-6.177125z"/><path d="m365.957753 103.904379h6.177125v6.173127h-6.177125z"/><path d="m374.819504 103.904379h6.177125v6.173127h-6.177125z"/><path d="m383.693683 103.904379h6.177125v6.173127h-6.177125z"/><path d="m338.142049 118.399428h6.177125v6.173127h-6.177125z"/><path d="m347.413951 118.399428h6.177125v6.173127h-6.177125z"/><path d="m356.685852 118.399428h6.177125v6.173127h-6.177125z"/><path d="m365.957753 118.399428h6.177125v6.173127h-6.177125z"/><path d="m374.819504 118.399428h6.177125v6.173127h-6.177125z"/><path d="m383.693683 118.399428h6.177125v6.173127h-6.177125z"/><path d="m338.142049 132.906898h6.177125v6.173127h-6.177125z"/><path d="m347.413951 132.906898h6.177125v6.173127h-6.177125z"/><path d="m356.685852 132.906898h6.177125v6.173127h-6.177125z"/><path d="m365.957753 132.906898h6.177125v6.173127h-6.177125z"/><path d="m374.819504 132.906898h6.177125v6.173127h-6.177125z"/><path d="m383.693683 132.906898h6.177125v6.173127h-6.177125z"/><path d="m338.142049 147.401947h6.177125v6.173127h-6.177125z"/><path d="m347.413951 147.401947h6.177125v6.173127h-6.177125z"/><path d="m356.685852 147.401947h6.177125v6.173127h-6.177125z"/><path d="m365.957753 147.401947h6.177125v6.173127h-6.177125z"/><path d="m374.819504 147.401947h6.177125v6.173127h-6.177125z"/><path d="m383.693683 147.401947h6.177125v6.173127h-6.177125z"/><path d="m338.142049 161.896995h6.177125v6.173127h-6.177125z"/><path d="m347.413951 161.896995h6.177125v6.173127h-6.177125z"/><path d="m356.685852 161.896995h6.177125v6.173127h-6.177125z"/><path d="m365.957753 161.896995h6.177125v6.173127h-6.177125z"/><path d="m374.819504 161.896995h6.177125v6.173127h-6.177125z"/><path d="m383.693683 161.896995h6.177125v6.173127h-6.177125z"/><path d="m338.142049 176.392044h6.177125v6.173127h-6.177125z"/><path d="m347.413951 176.392044h6.177125v6.173127h-6.177125z"/><path d="m356.685852 176.392044h6.177125v6.173127h-6.177125z"/><path d="m365.957753 176.392044h6.177125v6.173127h-6.177125z"/><path d="m374.819504 176.392044h6.177125v6.173127h-6.177125z"/><path d="m383.693683 176.392044h6.177125v6.173127h-6.177125z"/><path d="m338.142049 190.887093h6.177125v6.173127h-6.177125z"/><path d="m347.413951 190.887093h6.177125v6.173127h-6.177125z"/><path d="m356.685852 190.887093h6.177125v6.173127h-6.177125z"/><path d="m365.957753 190.887093h6.177125v6.173127h-6.177125z"/><path d="m374.819504 190.887093h6.177125v6.173127h-6.177125z"/><path d="m383.693683 190.887093h6.177125v6.173127h-6.177125z"/><path d="m338.142049 205.382142h6.177125v6.173127h-6.177125z"/><path d="m347.413951 205.382142h6.177125v6.173127h-6.177125z"/><path d="m356.685852 205.382142h6.177125v6.173127h-6.177125z"/><path d="m365.957753 205.382142h6.177125v6.173127h-6.177125z"/><path d="m374.819504 205.382142h6.177125v6.173127h-6.177125z"/><path d="m383.693683 205.382142h6.177125v6.173127h-6.177125z"/><path d="m338.142049 219.877191h6.177125v6.173127h-6.177125z"/><path d="m347.413951 219.877191h6.177125v6.173127h-6.177125z"/><path d="m356.685852 219.877191h6.177125v6.173127h-6.177125z"/><path d="m365.957753 219.877191h6.177125v6.173127h-6.177125z"/><path d="m374.819504 219.877191h6.177125v6.173127h-6.177125z"/><path d="m383.693683 219.877191h6.177125v6.173127h-6.177125z"/><path d="m338.142049 234.372239h6.177125v6.173127h-6.177125z"/><path d="m347.413951 234.372239h6.177125v6.173127h-6.177125z"/><path d="m356.685852 234.372239h6.177125v6.173127h-6.177125z"/><path d="m365.957753 234.372239h6.177125v6.173127h-6.177125z"/><path d="m374.819504 234.372239h6.177125v6.173127h-6.177125z"/><path d="m383.693683 234.372239h6.177125v6.173127h-6.177125z"/><path d="m338.142049 248.867288h6.177125v6.173127h-6.177125z"/><path d="m347.413951 248.867288h6.177125v6.173127h-6.177125z"/><path d="m356.685852 248.867288h6.177125v6.173127h-6.177125z"/><path d="m365.957753 248.867288h6.177125v6.173127h-6.177125z"/><path d="m374.819504 248.867288h6.177125v6.173127h-6.177125z"/><path d="m383.693683 248.867288h6.177125v6.173127h-6.177125z"/><path d="m338.142049 263.374758h6.177125v6.173127h-6.177125z"/><path d="m347.413951 263.374758h6.177125v6.173127h-6.177125z"/><path d="m356.685852 263.374758h6.177125v6.173127h-6.177125z"/><path d="m365.957753 263.374758h6.177125v6.173127h-6.177125z"/><path d="m374.819504 263.374758h6.177125v6.173127h-6.177125z"/><path d="m383.693683 263.374758h6.177125v6.173127h-6.177125z"/></g><path d="m592.242981 119.616664c-.63387-4.136119-3.604358-7.266155-7.183859-7.266155-.596584 0-1.168309.099366-1.715178.260836-1.267739-7.638779-6.823423-13.4020203-13.472843-13.4020203-5.38168 0-10.030059 3.7634963-12.292105 9.2286383-.807874-.211153-1.628176-.335361-2.485765-.335361-3.678931 0-6.947711 2.111533-9.035753 5.390618-1.05645-.732826-2.286904-1.142711-3.579501-1.142711-3.579501 0-6.549989 3.130036-7.183859 7.266155z" fill="#69daef"/><path d="m126.367347 144.90537c-.63387-4.13612-3.604359-7.266156-7.183859-7.266156-.596584 0-1.16831.099366-1.715178.260837-1.26774-7.6512-6.823423-13.402021-13.485272-13.402021-5.38168 0-10.0300595 3.763496-12.2921052 9.228639-.8078734-.211153-1.6281757-.335361-2.4857644-.335361-3.6789314 0-6.9477117 2.111532-9.0357538 5.390618-1.0564499-.732826-2.2869033-1.142712-3.5795008-1.142712-3.5795008 0-6.5499893 3.130036-7.1838593 7.266156z" fill="#8be3f3"/><path d="m35.6334334 30.0948017c-.3977223-2.583522-2.2496169-4.546005-4.4992337-4.546005-.3728646 0-.7333005.0621039-1.0688787.1614701-.7954446-4.7819998-4.263086-8.3840257-8.4267415-8.3840257-3.3682108 0-6.2765552 2.3475272-7.6934409 5.7756622-.4971529-.1366286-1.0191635-.2111533-1.5536028-.2111533-2.2993321 0-4.33765899 1.3166026-5.65511414 3.3660311-.65872758-.4595688-1.42931456-.7204052-2.23718801-.7204052-2.237188 0-4.10151134 1.962483-4.49923365 4.546005h35.6334334z" fill="#88e1f2" opacity=".551525"/><path d="m448.646708 132.559116c-.397723-2.583522-2.249617-4.546005-4.499234-4.546005-.372865 0-.7333.062104-1.068879.16147-.795444-4.782-4.263086-8.384026-8.426741-8.384026-3.368211 0-6.276555 2.347527-7.693441 5.775662-.497153-.136628-1.019164-.211153-1.553603-.211153-2.299332 0-4.337659 1.316603-5.655114 3.366031-.658728-.459569-1.429315-.720405-2.237188-.720405-2.237188 0-4.101511 1.962483-4.499234 4.546005h35.633434z" fill="#69daef"/><path d="m698.548065 18.1094954c-.559297-3.6641297-3.194207-6.4463841-6.375986-6.4463841-.52201 0-1.031592.0869454-1.528745.223574-1.131023-6.78174523-6.052836-11.8866853-11.956527-11.8866853-4.772668 0-8.899037 3.34118949-10.912506 8.19771399-.708443-.18631168-1.454172-.29809869-2.21233-.29809869-3.256352 0-6.164696 1.87553759-8.016591 4.7819998-.94459-.6458805-2.025898-1.0185038-3.181778-1.0185038-3.181779 0-5.816689 2.7822544-6.375986 6.4463841z" fill="#88e1f2" opacity=".60991"/><g transform="translate(46 210)"><g fill="#e5f8fb" opacity=".6" transform="translate(68.118948 181.952324)"><path d="m62.1742763 6.2902852c0 2.88887173-13.9175264 5.2302557-31.0871381 5.2302557-17.1696118 0-31.0871382-2.34138397-31.0871382-5.2302557 0-2.88887172 13.9175264-5.23025566 31.0871382-5.23025566 17.1696117 0 31.0871381 2.34138394 31.0871381 5.23025566z"/><path d="m458.893717 7.33866607c0 2.88887173-13.917527 5.23025563-31.087139 5.23025563-17.169611 0-31.087138-2.3413839-31.087138-5.23025563 0-2.88887172 13.917527-5.23025566 31.087138-5.23025566 17.169612 0 31.087139 2.34138394 31.087139 5.23025566z"/><path d="m405.822948 7.86285651c0 2.88887169-13.917527 5.23025569-31.087138 5.23025569-17.169612 0-31.087138-2.341384-31.087138-5.23025569 0-2.88887173 13.917526-5.23025567 31.087138-5.23025567 17.169611 0 31.087138 2.34138394 31.087138 5.23025567z"/><path d="m359.582724 5.23025566c0 2.88887172-13.917526 5.23025564-31.087138 5.23025564s-31.087138-2.34138392-31.087138-5.23025564 13.917526-5.23025566 31.087138-5.23025566c17.169612.01164868 31.087138 2.35303261 31.087138 5.23025566z"/><path d="m307.561015 6.2902852c0 2.88887173-13.917526 5.2302557-31.087138 5.2302557s-31.087138-2.34138397-31.087138-5.2302557c0-2.88887172 13.917526-5.23025566 31.087138-5.23025566s31.087138 2.34138394 31.087138 5.23025566z"/><path d="m246.610642 6.81447564c0 2.88887172-13.917527 5.23025566-31.087138 5.23025566-17.169612 0-31.087138-2.34138394-31.087138-5.23025566 0-2.88887173 13.917526-5.23025566 31.087138-5.23025566 17.169611 0 31.087138 2.34138393 31.087138 5.23025566z"/><path d="m207.200963 6.2902852c0 2.88887173-13.917527 5.2302557-31.087138 5.2302557-17.169612 0-31.087139-2.34138397-31.087139-5.2302557 0-2.88887172 13.917527-5.23025566 31.087139-5.23025566 17.169611 0 31.087138 2.34138394 31.087138 5.23025566z"/><path d="m156.228314 5.76609477c0 2.88887172-13.917527 5.23025563-31.087138 5.23025563-17.169612 0-31.0871386-2.34138391-31.0871386-5.23025563s13.9175266-5.23025566 31.0871386-5.23025566c17.169611 0 31.087138 2.34138394 31.087138 5.23025566z"/><path d="m102.108485 8.38704694c0 2.88887176-13.9175261 5.23025566-31.0871379 5.23025566-17.1696117 0-31.0871381-2.3413839-31.0871381-5.23025566 0-2.88887172 13.9175264-5.23025566 31.0871381-5.23025566 17.1696118 0 31.0871379 2.34138394 31.0871379 5.23025566z"/></g><path d="m11.8127861 97.4054857c1.5744289 0 3.2800603-.0874116 5.116894-.262235 1.8368337-.1748233 3.8923382-.4807641 6.1665133-.9178225v-30.5503776c.6997462.1748234 1.9024349.3277938 3.6080662.4589113 1.7056314.1311175 3.3893956.1966762 5.0512928.1966762 4.1984771 0 8.2876189-.52447 12.2674253-1.57341 3.9798065-1.04894 7.5222715-2.7971733 10.6273952-5.2447s5.5979695-5.7254642 7.4785374-9.8338125c1.8805679-4.1083484 2.8208518-9.2656367 2.8208518-15.4718651 0-6.9929334-1.1808217-12.6746917-3.5424651-17.0452751-2.3616433-4.3705833-5.4449-7.7577854-9.2497699-10.16160624-3.8048698-2.40382084-8.0689482-4.0427896-12.7922349-4.91690627-4.7232868-.87411667-9.4028394-1.311175-14.0386579-1.311175-6.2977156 0-11.523945.24038208-15.67868794.72114625-4.15474298.48076417-7.23799961.85226375-9.24976989 1.11449875v93.61789531c4.54835021.786705 8.35322009 1.1800575 11.41460963 1.1800575zm16.7939085-49.9557676c-1.1370876 0-2.230441-.0437059-3.2800603-.1311175-1.0496192-.0874117-1.7930996-.2185292-2.2304409-.3933525v-26.4857351c.6997462-.0874117 1.3994923-.1311175 2.0992385-.1311175h1.8368338c1.924302 0 3.7611357.2185291 5.5105012.6555875 1.7493654.4370583 3.2800602 1.2019104 4.5920843 2.2945562 1.3120241 1.0926459 2.3397763 2.5349384 3.0832567 4.3268775.7434803 1.7919392 1.1152204 3.9990838 1.1152204 6.6214338 0 4.457995-1.1808217 7.7796384-3.542465 9.96493-2.3616434 2.1852917-5.423033 3.2779376-9.1841687 3.2779376zm76.3598024 50.7424726c8.13455 0 16.094162-1.4422925 23.878839-4.3268775-.087469-3.409055-.590411-6.6869925-1.508828-9.8338125s-1.989903-5.8565817-3.214459-8.129285c-3.06139 1.2237633-6.166513 2.1415858-9.315371 2.7534675-3.148858.6118816-5.991577.9178225-8.528157.9178225-3.936072 0-7.106797-.7429992-9.5121745-2.2289975-2.4053775-1.4859984-4.0891418-4.0209367-5.0512928-7.6048151h39.8855323c.174937-1.2237633.37174-2.7753204.590411-4.6546712.218671-1.8793509.328006-3.9990838.328006-6.3591988 0-4.5454067-.677879-8.7630196-2.033637-12.6528388s-3.301927-7.2114625-5.838507-9.96493-5.619837-4.9169063-9.24977-6.4903163c-3.629934-1.57341-7.76281-2.360115-12.398628-2.360115-5.5979695 0-10.4961928.9396754-14.6946699 2.8190262-4.1984772 1.8793509-7.6972081 4.4361421-10.4961928 7.6703738-2.7989848 3.2342317-4.8982233 7.0366392-6.2977157 11.4072226-1.3994924 4.3705833-2.0992386 9.0471075-2.0992386 14.0295725 0 5.0698767.6778792 9.7464009 2.0336374 14.0295726 1.3557582 4.2831716 3.4549968 7.9763146 6.2977157 11.0794288 2.8427188 3.1031141 6.5163863 5.5287879 11.0210024 7.2770212 4.5046161 1.7482334 9.9057819 2.62235 16.2034975 2.62235zm7.478537-43.5310101h-20.9923851c.3498731-3.67129 1.5306948-6.3810517 3.5424651-8.129285 2.0117702-1.7482334 4.4171478-2.6223501 7.216133-2.6223501 3.236326 0 5.707304 1.0270871 7.412936 3.0812613 1.705631 2.0541742 2.645915 4.6109654 2.820851 7.6703738zm81.607899 41.9576001c.349873-1.835645.590411-3.4309079.721614-4.7857887.131202-1.3548809.196803-2.6879088.196803-3.9990838 0-2.5349383-.306139-5.5943467-.918417-9.178225h-25.05966l27.552506-45.6288902-1.312024-4.19576h-53.399381c-.437341 1.835645-.721613 3.4309079-.852815 4.7857888-.131203 1.3548808-.196804 2.6879087-.196804 3.9990837s.065601 2.6879088.196804 4.1302013c.131202 1.4422925.415474 3.1249671.852815 5.0480238h22.435612l-27.421303 45.8911251 2.099238 3.933525zm63.10836 0c.349873-1.835645.59041-3.4309079.721613-4.7857887.131202-1.3548809.196803-2.6879088.196803-3.9990838 0-2.5349383-.306139-5.5943467-.918416-9.178225h-25.059661l27.552506-45.6288902-1.312024-4.19576h-53.399381c-.437341 1.835645-.721613 3.4309079-.852815 4.7857888-.131203 1.3548808-.196804 2.6879087-.196804 3.9990837s.065601 2.6879088.196804 4.1302013c.131202 1.4422925.415474 3.1249671.852815 5.0480238h22.435612l-27.421303 45.8911251 2.099238 3.933525zm39.885532 1.4422925c5.248097 0 10.233788-.4807641 14.957075-1.4422925 4.723287-.9615283 8.746827-1.9230566 12.070622-2.884585v-38.4174276c0-4.8950534-.699747-9.1126663-2.099239-12.6528388s-3.389396-6.4466105-5.96971-8.7193138-5.707304-3.9553779-9.380972-5.0480238c-3.673667-1.0926458-7.784676-1.6389687-12.333026-1.6389687-3.323795 0-7.063064.3496467-11.217807 1.04894s-8.331353 1.7482333-12.52983 3.14682c0 1.7482333.065602 3.2997904.196804 4.6546713.131202 1.3548808.349873 2.6660558.656012 3.933525s.74348 2.5130854 1.312024 3.7368487c.568544 1.2237634 1.246423 2.5786442 2.033637 4.0646426 2.973922-1.04894 5.860375-1.8137921 8.659359-2.2945563 2.798985-.4807642 5.248097-.7211463 7.347335-.7211463 1.574429 0 3.105124.1092646 4.592085.3277938 1.48696.2185292 2.842719.6118817 4.067274 1.1800575 1.224556.5681758 2.230441 1.3767338 3.017656 2.4256738.787214 1.04894 1.224556 2.360115 1.312024 3.933525h-8.003347c-3.323794 0-6.735057.3277937-10.233788.9833812s-6.691323 1.8137921-9.577776 3.4746138-5.248096 3.8898192-7.08493 6.6869925c-1.836834 2.7971734-2.755251 6.3373459-2.755251 10.6205176 0 4.3705833.765348 8.0637262 2.296043 11.0794287 1.530694 3.0157026 3.6518 5.4413763 6.363316 7.2770213 2.711517 1.835645 5.96971 3.168673 9.77458 3.9990838s7.98148 1.2456162 12.52983 1.2456162zm0-16.25857c-1.137087 0-2.38351-.0874117-3.739269-.262235-1.355758-.1748234-2.624048-.52447-3.804869-1.04894-1.180822-.52447-2.16484-1.2893221-2.952055-2.2945563-.787214-1.0052342-1.180821-2.3819679-1.180821-4.1302012 0-2.3601151 1.049619-4.1957601 3.148857-5.5069351 2.099239-1.311175 4.679553-1.9667625 7.740943-1.9667625h7.478537v14.4229251c-.699746.1748233-1.7931.3496466-3.28006.52447-1.486961.1748233-2.624048.262235-3.411263.262235zm95.121747 14.8162775c.437342-2.2727033.721614-4.2176129.852816-5.8347287.131202-1.6171159.196804-3.168673.196804-4.6546713 0-1.311175-.065602-2.7753204-.196804-4.3924363-.131202-1.6171158-.415474-3.5183196-.852816-5.7036112h-30.307756v-73.42580031c-2.274176-.34964666-4.395281-.61188167-6.363317-.786705s-3.739269-.262235-5.313698-.262235c-1.486961 0-3.192592.08741167-5.116894.262235s-4.067275.43705834-6.428918.786705v94.01124781zm39.491926 1.57341c5.597969 0 10.496192-.8304108 14.69467-2.4912325 4.198477-1.6608216 7.719075-4.0427896 10.561794-7.1459037 2.842718-3.1031142 4.985691-6.8181101 6.428918-11.1449876 1.443226-4.3268775 2.164839-9.1126663 2.164839-14.3573663 0-5.3321117-.721613-10.2053121-2.164839-14.6196013-1.443227-4.4142892-3.5862-8.1948438-6.428918-11.3416638-2.842719-3.14682-6.363317-5.5724938-10.561794-7.2770213-4.198478-1.7045275-9.096701-2.5567912-14.69467-2.5567912-5.510502 0-10.364991.8522637-14.563468 2.5567912s-7.719075 4.1302013-10.561794 7.2770213-4.985691 6.9273746-6.428918 11.3416638c-1.443226 4.4142892-2.16484 9.2874896-2.16484 14.6196013 0 5.2447.721614 10.0304888 2.16484 14.3573663 1.443227 4.3268775 3.586199 8.0418734 6.428918 11.1449876 2.842719 3.1031141 6.363317 5.4850821 10.561794 7.1459037 4.198477 1.6608217 9.052966 2.4912325 14.563468 2.4912325zm0-17.9630975c-3.848604 0-6.691323-1.4859984-8.528157-4.457995-1.836834-2.9719967-2.755251-7.2114626-2.755251-12.7183976 0-5.5943467.918417-9.8775184 2.755251-12.849515 1.836834-2.9719967 4.679553-4.457995 8.528157-4.457995s6.71319 1.4859983 8.593757 4.457995c1.880568 2.9719966 2.820852 7.2551683 2.820852 12.849515 0 5.506935-.940284 9.7464009-2.820852 12.7183976-1.880567 2.9719966-4.745153 4.457995-8.593757 4.457995zm72.817337 17.83198c5.248096 0 10.233788-.4807641 14.957075-1.4422925 4.723287-.9615283 8.746827-1.9230566 12.070622-2.884585v-38.4174276c0-4.8950534-.699747-9.1126663-2.099239-12.6528388s-3.389396-6.4466105-5.96971-8.7193138-5.707305-3.9553779-9.380972-5.0480238c-3.673667-1.0926458-7.784676-1.6389687-12.333027-1.6389687-3.323794 0-7.063063.3496467-11.217806 1.04894s-8.331353 1.7482333-12.52983 3.14682c0 1.7482333.065601 3.2997904.196804 4.6546713.131202 1.3548808.349873 2.6660558.656012 3.933525s.74348 2.5130854 1.312024 3.7368487c.568544 1.2237634 1.246423 2.5786442 2.033637 4.0646426 2.973922-1.04894 5.860375-1.8137921 8.659359-2.2945563 2.798985-.4807642 5.248097-.7211463 7.347335-.7211463 1.574429 0 3.105124.1092646 4.592085.3277938 1.48696.2185292 2.842719.6118817 4.067274 1.1800575 1.224556.5681758 2.230441 1.3767338 3.017656 2.4256738.787214 1.04894 1.224556 2.360115 1.312024 3.933525h-8.003347c-3.323794 0-6.735057.3277937-10.233788.9833812s-6.691323 1.8137921-9.577776 3.4746138-5.248096 3.8898192-7.08493 6.6869925c-1.836834 2.7971734-2.755251 6.3373459-2.755251 10.6205176 0 4.3705833.765348 8.0637262 2.296043 11.0794287 1.530694 3.0157026 3.6518 5.4413763 6.363316 7.2770213 2.711517 1.835645 5.96971 3.168673 9.77458 3.9990838s7.98148 1.2456162 12.52983 1.2456162zm0-16.25857c-1.137087 0-2.38351-.0874117-3.739269-.262235-1.355758-.1748234-2.624048-.52447-3.804869-1.04894-1.180822-.52447-2.16484-1.2893221-2.952055-2.2945563-.787214-1.0052342-1.180821-2.3819679-1.180821-4.1302012 0-2.3601151 1.049619-4.1957601 3.148857-5.5069351 2.099239-1.311175 4.679553-1.9667625 7.740943-1.9667625h7.478537v14.4229251c-.699746.1748233-1.7931.3496466-3.28006.52447-1.486961.1748233-2.624048.262235-3.411263.262235zm90.136056 15.7341c1.399492 0 3.017655-.0655587 4.854489-.1966762s3.892338-.4152054 6.166513-.8522638v-39.2041326c0-6.4684634-.984018-11.6694575-2.952054-15.6029826-1.968036-3.933525-4.504616-6.9492275-7.60974-9.0471075s-6.581987-3.4746138-10.430592-4.1302013c-3.848604-.6555875-7.697208-.9833812-11.545812-.9833812-6.56012 0-12.026887.5026171-16.400301 1.5078512-4.373413 1.0052342-8.090815 2.0323213-11.152205 3.0812613v64.3786927c2.274175.4370584 4.32968.7211463 6.166514.8522638 1.836833.1311175 3.498731.1966762 4.985691.1966762 1.399493 0 3.017656-.0655587 4.854489-.1966762 1.836834-.1311175 3.892339-.4152054 6.166514-.8522638v-49.0379451c.262404-.1748234.940284-.3496467 2.033637-.52447 1.093353-.1748234 2.121106-.262235 3.083257-.262235 3.586199 0 6.253981 1.0052341 8.003347 3.0157025 1.749365 2.0104683 2.624048 5.3321117 2.624048 9.96493v36.8440176c2.274175.4370584 4.329679.7211463 6.166513.8522638s3.498731.1966762 4.985692.1966762z" fill="#fff"/><g transform="translate(128.122837 94.114315)"><path d="m26.3547129 23.32065c-.6177796 2.3413839-3.3803037 5.0671742-5.7232039 4.4497943-2.3429002-.6173798-3.3803037-4.3566049-2.7508679-6.6979889.6177797-2.3413839 3.0306172-3.7275764 5.3735174-3.1101965 2.3312439.6173798 3.7183341 3.0286558 3.1005544 5.3583911z" fill="#ffcfd3"/><path d="m4.3594262 2.46951938c0 1.11827292-.90918515 2.02686967-2.02818224 2.02686967-1.1189971 0-2.02818225-.90859675-2.02818225-2.02686967 0-1.11827293.90918515-2.02686968 2.02818225-2.02686968 1.11899709 0 2.02818224.90859675 2.02818224 2.02686968z" fill="#ffcfd3"/><g fill="#0a3a7f"><path d="m6.55079552 91.3489196 4.86064368-.8620021.3380303.5008931-7.21520001 2.7840336-.69937318-1.4094898z"/><path d="m26.5295562 51.2541757-3.6250843 20.2803455.8159354 21.9344575h-8.4973843l-.4545925-1.6308147 5.8281099-.7804613-3.1122107-19.4183434-1.643527-19.4765868z"/><path d="m29.3387052 50.9746075.7693105 16.5877151 13.0199975 17.2866356-1.5502772 8.1540734h-3.8931775l2.331244-1.7473014.3963115-5.2419044-12.4371865-13.9784115-10.1059426-20.3851836z"/></g><path d="m2.33124396 4.49638905 2.02818224-2.02686967 6.2011089 14.80546762 7.4016996 9.0393728 6.5857642 3.0170071 5.4784233 23.0876765-14.5353061 1.3745438-1.643527-23.6468129-8.7771335-10.9614044z" fill="#e06170"/><path d="m23.6038451 22.2839178c-.0349687.465947-.0699374.9435428-.104906 1.4094898.582811-.0931894 1.060716.6523259.850904 1.1998137-.2098119.5591364-.8742165.827056-1.4686837.7804613.1398747.6057311.1748433 1.223111.1165622 1.8404908 1.2239031-.5940825 2.43615-1.3046517 3.287054-2.3530326.8625603-1.0483809 1.3171528-2.5161141.8975289-3.8091171-.1282184-.4077037-.3380303-.7804613-.5478423-1.153219-.3030617-.5358391-.6061234-1.0600295-.8975289-1.5958686-.2447806-.4193524-.5012175-.8620021-.9208414-1.1066243-.3963115-.2329735-.8858727-.2562709-1.3521215-.2679195-.8159354-.0232974-3.2987102-.1514328-2.5527121 1.1648676.7926229 1.3628951 1.8183703 2.6209522 2.6925868 3.8906579z" fill="#0a3a7f"/></g><g transform="translate(100.147909 94.114315)"><path d="m7.425012 57.8356778 3.39196 15.9120919-2.02818229 20.3036428 2.70424299.3378116 5.4201422-21.3170776-2.3662126-18.6262335-8.13604142.3494603z" fill="#0a3a7f"/><path d="m22.3333171 54.1081014-7.7863548.3378116 17.2628615 37.9164414 2.7158992-1.0134348z" fill="#0a3a7f"/><path d="m6.41092088 54.7953733-2.36621262-24.3690308-3.05392958-26.06973756 2.37786884-.33781162 5.42014219 24.70684248 8.46241559.6756232 8.8004459-25.04465406 2.3778688.33781161-6.4342333 26.74536075.3380304 22.6683241z" fill="#fff"/><g fill="#ffcfd3"><path d="m18.2536402 22.2839178c0 2.4229246-1.9699012 5.7660947-4.3827387 5.7660947-2.4244937 0-4.3827386-3.3431701-4.3827386-5.7660947 0-2.4229247 1.9699011-4.3799538 4.3827386-4.3799538 2.4128375-.0115972 4.3827387 1.9570291 4.3827387 4.3799538z"/><path d="m4.72076901 3.00535849c0 1.11827292-.90918514 2.02686967-2.02818224 2.02686967s-2.02818224-.90859675-2.02818224-2.02686967c0-1.11827293.90918514-2.02686968 2.02818224-2.02686968s2.02818224.90859675 2.02818224 2.02686968z"/><path d="m28.42952 3.68098171c0 1.11827293-.9091851 2.02686968-2.0281822 2.02686968s-2.0281822-.90859675-2.0281822-2.02686968c0-1.11827292.9091851-2.02686967 2.0281822-2.02686967s2.0281822.90859675 2.0281822 2.02686967z"/></g><path d="m15.5960221 20.15221c.5012174 0 1.223903-.1397841 1.5969021-.5008931.0349686-.034946.0582811-.069892.0815935-.1048381-.8042792-1.0017861-2.016526-1.6424633-3.4036162-1.6424633-2.4244937 0-4.3827386 1.9686263-4.3827386 4.3799023 0 1.7240041 1.0024349 3.9256039 2.4594624 5.0438768.0932497-.465947.104906-.9435428.1165622-1.4211385.0233124-1.9103829-.0116562-3.8207658-.104906-5.7195001 1.2005906.0815408 2.4244937.0698921 3.6367406-.034946z" fill="#0a3a7f"/><path d="m11.4930327 94.3892241 4.3244575.0116487s.1165622.79211-.0582811.7338666-7.2734811.1747301-7.2734811.1747301l.29140549-1.258057z" fill="#0a3a7f"/><path d="m12.0175626 22.8780003c-.2447806-.3028656-.6294359-.5241905-1.0257473-.4659471-.0932498.0116487-.1748433.034946-.2564369.0815407-.2098119.1164868-.3380304.361109-.372999.6057312-.1282184.6639746.268093 1.3628951.8392478 1.7356528.1631871.1048381.3380304.1863788.5361861.2096762.1864995.0232973.3963115-.0232974.5478423-.1397842.5361862-.4542983.0815936-1.5842199-.268093-2.0268696z" fill="#ffcfd3"/></g><g transform="translate(175.913338 94.114315)"><path d="m6.32932734 54.7953733.93249758-12.918382-1.44537125-9.5053199-4.90726853-28.01506646 2.36621262-.33781162 5.4201422 24.70684248 8.47407174.6756232 8.800446-25.04465406 2.3662126.33781161-6.4342333 26.74536075-2.2496505 10.2158892.2564369 12.4524349z" fill="#fff"/><g fill="#ffcfd3"><path d="m18.1603904 22.2839178c0 2.4229246-1.9699011 5.7660947-4.3827386 5.7660947s-4.38273866-3.3431701-4.38273866-5.7660947c0-2.4229247 1.96990116-4.3799023 4.38273866-4.3799023s4.3827386 1.9569776 4.3827386 4.3799023z"/><path d="m4.63917547 3.00535849c0 1.11827292-.90918514 2.02686967-2.02818224 2.02686967s-2.02818224-.90859675-2.02818224-2.02686967c0-1.11827293.90918514-2.02686968 2.02818224-2.02686968s2.02818224.90859675 2.02818224 2.02686968z"/><path d="m11.9359691 22.8780003c-.2447807-.3028656-.6294359-.5241905-1.0257474-.4659471-.0932497.0116487-.1748433.034946-.2564368.0815407-.209812.1164868-.3380304.361109-.3729991.6057312-.1282184.6639746.2680931 1.3628951.8392479 1.7356528.163187.1048381.3380303.1863788.5361861.2096762.1864995.0232973.3963115-.0232974.5478423-.1397842.5361861-.4542983.0815935-1.5842199-.268093-2.0268696z"/></g><path d="m11.9359691 22.6333781c-.104906.0465947-.209812.0931894-.314718.0582433-.104906-.034946-.1515308-.1514328-.2214682-.2329735-.268093-.3378116-.8392478-.3378116-1.1539657-.034946-.30306173.3028656-.33803039.827056-.1282184 1.1998136.2098119.3727577.6294358.6173799 1.060716.6756233.2797492 1.0017861.3963114 2.0618157.3380303 3.0985479-.6993731.0465947-1.3987463.1048381-2.09811952.1514328-.13987464.0116486-.27974927.0116486-.39631147-.0698921-.10490598-.0815407-.13987464-.2096762-.16318708-.3378116-.25643683-1.1998137-.39631147-2.4229247-.38465525-3.6460357 0-1.188165.13987464-2.4229247.75765429-3.4480082.73434184-1.223111 3.76495903-3.238332 5.23364263-2.1084104 1.643527 1.2464084-1.4104025 4.1585774-2.5293996 4.6944166z" fill="#0a3a7f"/><path d="m15.6309907 20.8511306c.6644046 1.0017861 1.6202146 1.8637882 2.7858366 2.1666538.3380303-1.3046518.0466248-2.7490876-.7693106-3.8207659-.4545925-.6057311-2.1097757-2.0734643-2.9956484-1.724004-.9091852.3611089.5361861 2.7024929.9791224 3.3781161z" fill="#0a3a7f"/><path d="m6.81888857 45.6278651 12.95006013-.6057312 9.966068 44.6027816 4.6275192-2.807331-5.6299541 6.8261243-13.2647782-36.7632224.1981558 16.6692558-8.99860169 11.9165958-.57115477 4.2983616-.23312439 1.8288422-1.60855833-.1863788-.29140549-6.5582048 6.97041947-11.3108647-4.91892479-18.7310715z" fill="#0a3a7f"/><path d="m6.00295319 16.4479309-2.80914897.9784889-2.28461908-13.06981486 2.36621262-.33781162z" fill="#ffcfd3"/><path d="m22.3333171 14.7006295 3.287054 1.2930031 2.7158992-11.29921605-2.3662126-.33781161z" fill="#ffcfd3"/><path d="m11.3415018 28.9353119 2.43615 4.3216589 1.2239031-4.0187933z" fill="#ffcfd3"/></g><g transform="translate(270.328718 94.114315)"><path d="m7.70476127 57.8356778 3.38030373 15.9120919-2.02818223 20.3036428 2.70424303.3378116 5.4201422-21.3170776-2.3662127-18.6262335-8.12438515.3494603z" fill="#0a3a7f"/><path d="m22.6014102 54.1081014-7.7863549.3378116 17.2745178 37.9164414 2.7042429-1.0134348z" fill="#0a3a7f"/><path d="m6.69067015 54.7953733-2.37786883-24.3690308-3.04227336-26.06973756 2.36621261-.33781162 5.4201422 24.70684248 8.46241553.6756232 8.8121022-25.04465406 2.3662126.33781161-6.4342333 26.74536075.3380304 22.6683241z" fill="#e06170"/><g fill="#ffcfd3"><path d="m18.5217332 22.2839178c0 2.4229246-1.9699011 5.7660947-4.3827386 5.7660947s-4.38273864-3.3431701-4.38273864-5.7660947c0-2.4229247 1.96990114-4.3799023 4.38273864-4.3799023s4.3827386 1.9569776 4.3827386 4.3799023z"/><path d="m4.98886207 3.00535849c0 1.11827292-.90918515 2.02686967-2.02818225 2.02686967-1.11899709 0-2.02818224-.90859675-2.02818224-2.02686967 0-1.11827293.90918515-2.02686968 2.02818224-2.02686968 1.1189971 0 2.02818225.90859675 2.02818225 2.02686968z"/><path d="m28.6976131 3.68098171c0 1.11827293-.9091851 2.02686968-2.0281822 2.02686968s-2.0281823-.90859675-2.0281823-2.02686968c0-1.11827292.9091852-2.02686967 2.0281823-2.02686967s2.0281822.90859675 2.0281822 2.02686967z"/></g><path d="m15.8641151 20.15221c.5012175 0 1.2239031-.1397841 1.5969021-.5008931.0349687-.034946.0582811-.069892.0815936-.1048381-.8042792-1.0017861-2.0165261-1.6424633-3.4036162-1.6424633-2.4244937 0-4.38273864 1.9686263-4.38273864 4.3799023 0 1.7240041 1.00243494 3.9256039 2.45946234 5.0438768.0932498-.465947.104906-.9435428.1165622-1.4211385.0233125-1.9103829-.0116562-3.8207658-.104906-5.7195001 1.2005907.0815408 2.4244938.0698921 3.6367406-.034946z" fill="#0a3a7f"/><path d="m12.2856556 22.8780003c-.2447806-.3028656-.6294358-.5241905-1.0257473-.4659471-.0932498.0116487-.1748433.034946-.2564368.0815407-.209812.1164868-.3380304.361109-.3729991.6057312-.1282184.6639746.2680931 1.3628951.8392479 1.7356528.163187.1048381.3380303.1863788.5361861.2096762.1864995.0232973.3963114-.0232974.5478423-.1397842.5478423-.4542983.0932498-1.5842199-.2680931-2.0268696z" fill="#ffcfd3"/><path d="m34.793816 91.3489196h5.1753616v1.0134348l-7.5765428 1.1066243-.3030617-1.1066243z" fill="#0a3a7f"/></g><g transform="translate(247.016278 94.114315)"><path d="m17.8107038 17.0070674c.3496866-.2329735.8275916-.0465947 1.1539658.2096762.3263741.2562709.6177796.6057311 1.0257473.6989206.1631871.034946.3380304.034946.5012175.069892.6877169.1397841 1.0956846 1.0483809.745998 1.654112-.0815935.1397842-.1981557.2679196-.2214681.4310011-.0582811.3727576.3496866.6173798.5478423.9435428.4662488.7455152-.2797493 1.7705988.0582811 2.5860061.1515308.3727576.5012174.6173798.7809667.8969481.2797493.2795682.5361861.6756232.4196239 1.0600295-.1515308.5008931-.8275916.6173799-1.3404652.4775957-.5012175-.1397841-.9791225-.431001-1.5036524-.4193523-.2680931.0116487-.5361861.0931894-.8042792.0931894-.5711547-.0232973-1.0490597-.4892444-1.2938404-1.0134348-.2447806-.5241905-.3147179-1.1066243-.477905-1.6541121-.2098119-.7105692-.5594985-1.3745438-1.0257473-1.9453289-.4079677-.5008931-.9441538-1.0949756-.6993732-1.6890581.1631871-.4077036.6177797-.5940825.9791225-.8387047.3380303-.2329735.5944672-.6290285.4545925-1.0483808.3030618-.0931894.4545926-.3494603.6993732-.5125418z" fill="#0a3a7f"/><path d="m23.918563 54.7953733-.9324976-12.918382 1.4453713-9.5053199 4.9072685-28.01506646-2.3778688-.33781162-5.408486 24.70684248-8.4740718.6756232-8.80044594-25.04465406-2.37786884.33781161 6.43423332 26.74536075 2.26130666 10.2158892-.2680931 12.4524349z" fill="#edb44f"/><g fill="#ffcfd3"><path d="m12.0758437 22.2839178c0 2.4229246 1.9699011 5.7660947 4.3827386 5.7660947 2.4244937 0 4.3827387-3.3431701 4.3827387-5.7660947 0-2.4229247-1.9699012-4.3799538-4.3827387-4.3799538-2.4128375-.0115972-4.3827386 1.9570291-4.3827386 4.3799538z"/><path d="m25.6087149 3.00535849c0 1.11827292.9091851 2.02686967 2.0281822 2.02686967s2.0281822-.90859675 2.0281822-2.02686967c0-1.11827293-.9091851-2.02686968-2.0281822-2.02686968s-2.0281822.90859675-2.0281822 2.02686968z"/><path d="m18.3119213 22.8780003c.2447806-.3028656.6294358-.5241905 1.0257473-.4659471.0932498.0116487.1748433.034946.2564368.0815407.209812.1164868.3380304.361109.3729991.6057312.1282184.6639746-.2680931 1.3628951-.8392478 1.7356528-.1631871.1048381-.3380304.1863788-.5361862.2096762-.1864995.0232973-.3963114-.0232974-.5478423-.1397842-.5361861-.4542983-.0815935-1.5842199.2680931-2.0268696z"/></g><path d="m10.397348 45.6278651 12.9500602-.6057312 9.9660679 44.6027816 8.5206967 3.8440632-9.5347878.1747301-13.2647781-36.7632224.1981557 16.6692558-8.9869454 11.9165958-.582811 4.2983616-.2331244 1.8288422-1.60855833-.1863788-.29140549-6.5582048 6.97041942-11.3108647-4.91892474-18.7310715z" fill="#0a3a7f"/><path d="m24.2449371 16.4479309 2.7974928.9784889 2.2962753-13.06981486-2.3778688-.33781162z" fill="#ffcfd3"/><path d="m7.91457323 14.7006295-3.28705398 1.2930031-2.72755543-11.29921605 2.37786884-.33781161z" fill="#ffcfd3"/><path d="m.83924782 3.00535849c0 1.11827292.90918515 2.02686967 2.02818225 2.02686967 1.11899709 0 2.02818224-.90859675 2.02818224-2.02686967 0-1.11827293-.90918515-2.02686968-2.02818224-2.02686968-1.1189971 0-2.02818225.90859675-2.02818225 2.02686968z" fill="#ffcfd3"/><path d="m18.7432014 19.395046c-.2331244.4193524-.7226856.5940825-1.1539658.79211-.4312801.1980275-.8975289.5008931-.95581.9784888-.0699373.5474878.4545926 1.0600296.3030617 1.58422-.2098119.7455153-1.5502772.8037587-1.5969021 1.58422-.0116562.2562709.1282184.4892444.2331244.7222179.1631871.3844063.1981558.8736508-.104906 1.153219-.2098119.1980275-.5245298.2446222-.8042791.3378116s-.5711548.2912169-.5711548.5824338c0 .3145143.3496866.6173799.1981557.8852994-.1165621.2096762-.4196239.1863788-.6527483.1397841-.4662487-.1048381-.9791224-.2329735-1.223903-.6406772-.1398747-.2329735-.1748433-.5008931-.2914055-.7455153-.3846553-.8037586-1.5036524-.8852994-2.17971313-1.4793818-.78096672-.6872719-.72268562-2.1084105.11656223-2.7257903.3263741-.2329735.7343418-.361109 1.0140911-.6523259.3613428-.3727576.4429363-.9551914.3613428-1.4677332-.0699373-.5241904-.2680931-1.0134348-.3613428-1.5259766-.0582811-.2912169-.0699373-.6290285.104906-.8736507.2447806-.3378116.7576543-.3378116 1.1539657-.2213249.3963115.1164868.7809668.326163 1.2005907.326163 1.0024349-.0116487 1.6668394-1.2347597 2.6692743-1.2580571.7343418-.0116486 1.2355593.5940825 1.7834016.9784889.5245299.3844063 1.2005907.7338666.7576543 1.5259765z" fill="#0a3a7f"/></g><g transform="translate(418.362709 91.78458)"><path d="m35.9361256.32616294c.1515308.38440632-10.8635969 18.57963866-10.8635969 18.57963866l-6.364296 12.7553006 4.5109571.0698921 5.6532666-14.2812772 7.4599807-14.91030567z" fill="#d8972e"/><path d="m19.8855109 22.9828383c-.6993731 2.3180866.209812 6.0922578 2.5177435 6.7911783 2.3195878.6989206 5.1753616-1.9336802 5.8747348-4.2517668s-.6061234-4.7643086-2.9257112-5.4632292c-2.3195877-.6989206-4.7673939.6057312-5.4667671 2.9238177z" fill="#ffcfd3"/><g fill="#0a3a7f"><path d="m16.7150192 53.583911 3.6250843 20.2803454-.8159354 21.9344575h8.4973843l.4545925-1.6308147-5.8281099-.7804613 3.1122107-19.4183434-.3846552-19.9891285z"/><path d="m13.9058702 53.3043428-.7693105 16.587715-13.0199975 17.2866357 1.55027723 8.1540734h3.8931774l-2.33124395-1.7473015-.39631147-5.2419043 12.43718649-13.9784116 10.1059426-20.3851835z"/><path d="m22.6014102 21.7597273c-.2214682.4193524-.2680931 2.6326009-.4895613 3.0519532-.4429363-.396055-1.2472155-.0116486-1.3521215.5707852-.1165622.5824338.3030617 1.1648676.8392479 1.4327872-.4312802.4426497-.792623.9435427-1.0723723 1.5026792-.7343418-1.1415703-1.3870901-2.3879786-1.5619334-3.7275764-.1748433-1.3512465.1981557-2.8306284 1.2355593-3.7042791.3263741-.2795682.6993732-.4775957 1.0723722-.6872719.5361861-.2912169 1.0723722-.5824338 1.6085583-.8852994.4312802-.2329735.8742165-.4775957 1.3637777-.465947.4662488.0116486.8858727.2446222 1.2821842.4775957.7110294.4077037 2.8790863 1.6075173 1.5502772 2.3297352-1.3521214.7455153-3.0539295-.5241904-4.4759883.1048381z"/></g><path d="m38.0225889 1.89873424-2.4711186-.10483809-9.1734449 19.84934445-3.4502411 6.6746915-4.2312078 3.3431701-4.7907063 21.6432406 11.4697203.6756232.8392478-21.0258607 3.5668032-10.3906193z" fill="#edb44f"/></g><path d="m457.504295 93.0542858c0 1.1182729-.909185 2.0268697-2.028182 2.0268697s-2.028182-.9085968-2.028182-2.0268697.909185-2.0268697 2.028182-2.0268697 2.028182.9085968 2.028182 2.0268697z" fill="#ffcfd3"/><g transform="translate(398.547135 94.114315)"><path d="m7.37838712 54.7953733.93249758-12.918382-1.44537125-9.5053199-4.90726853-28.01506646 2.36621262-.33781162 5.4201422 24.70684248 8.47407176.6756232 8.8004459-25.04465406 2.3662127.33781161-6.4342334 26.74536075-2.2496504 10.2158892.2564369 12.4524349z" fill="#fff"/><path d="m19.2094502 22.2839178c0 2.4229246-1.9699011 5.7660947-4.3827386 5.7660947s-4.3827387-3.3431701-4.3827387-5.7660947c0-2.4229247 1.9699012-4.3799023 4.3827387-4.3799023s4.3827386 1.9569776 4.3827386 4.3799023z" fill="#ffcfd3"/><path d="m12.9733726 22.8780003c-.2447806-.3028656-.6294359-.5241905-1.0257473-.4659471-.0932498.0116487-.1748433.034946-.2564369.0815407-.2098119.1164868-.3380303.361109-.372999.6057312-.1282184.6639746.2680931 1.3628951.8392478 1.7356528.1631871.1048381.3380304.1863788.5361861.2096762.1864996.0232973.3963115-.0232974.5478424-.1397842.5478423-.4542983.0932497-1.5842199-.2680931-2.0268696z" fill="#ffcfd3"/><path d="m12.9850288 22.6333781c-.1049059.0465947-.2098119.0931894-.3147179.0582433-.104906-.034946-.1515309-.1514328-.2214682-.2329735-.268093-.3378116-.8392478-.3378116-1.1539657-.034946-.3030617.3028656-.3380304.827056-.1282185 1.1998136.209812.3727577.6294359.6173799 1.060716.6756233.2797493 1.0017861.3963115 2.0618157.3380304 3.0985479-.6993732.0465947-1.3987464.1048381-2.0981195.1514328-.1398747.0116486-.2797493.0116486-.3963115-.0698921-.10490599-.0815407-.13987465-.2096762-.16318709-.3378116-.25643683-1.1998137-.39631147-2.4229247-.38465525-3.6460357 0-1.188165.13987464-2.4229247.75765424-3.4480082.7343419-1.223111 3.764959-3.238332 5.2336427-2.1084104 1.643527 1.2464084-1.4104026 4.1585774-2.5293997 4.6944166z" fill="#0a3a7f"/><path d="m16.6800505 20.8511306c.6644045 1.0017861 1.6202146 1.8637882 2.7858365 2.1666538.3380304-1.3046518.0466249-2.7490876-.7693105-3.8207659-.4545925-.6057311-2.1097758-2.0734643-2.9956485-1.724004-.9091851.3611089.5361862 2.7024929.9791225 3.3781161z" fill="#0a3a7f"/><path d="m7.86794835 45.6278651 12.95006015-.6057312 9.9660679 44.6027816 4.6275193-2.807331-5.6299542 6.8261243-13.2647781-36.7632224.1981558 16.6692558-8.99860171 11.9165958-.57115477 4.2983616-.23312439 1.8288422-1.60855833-.1863788-.29140549-6.5582048 6.95876319-11.3108647-4.90726851-18.7310715z" fill="#0a3a7f"/><g fill="#ffcfd3"><path d="m7.05201297 16.4479309-2.80914897.9784889-2.28461908-13.06981486 2.36621262-.33781162z"/><path d="m23.3823769 14.7006295 3.287054 1.2930031 2.7158992-11.29921605-2.3662127-.33781161z"/><path d="m12.3905616 28.9353119 2.43615 4.3216589 1.223903-4.0187933z"/><path d="m30.4460461 3.00535849c0 1.11827292-.9091852 2.02686967-2.0281823 2.02686967s-2.0281822-.90859675-2.0281822-2.02686967c0-1.11827293.9091851-2.02686968 2.0281822-2.02686968s2.0281823.90859675 2.0281823 2.02686968z"/><path d="m4.94223719 3.3897648c0 1.11827293-.90918515 2.02686968-2.02818225 2.02686968-1.11899709 0-2.02818224-.90859675-2.02818224-2.02686968 0-1.11827292.90918515-2.02686967 2.02818224-2.02686967 1.1189971-.01164868 2.02818225.89694807 2.02818225 2.02686967z"/></g></g><g transform="translate(449.834502 92.949448)"><path d="m10.712066 3.93725259c-.0233125.34946029-.4429364 11.88164981-.4429364 11.88164981l-2.59933698 14.6773322 4.51095708.069892 1.4104026-14.933603-.3963115-11.70691969z" fill="#79bae2"/><path d="m8.84707081 21.8179707c-.69937318 2.3180866.20981196 6.0922577 2.52939969 6.7911783 2.3195877.6989206 5.1753616-1.9336803 5.8747348-4.2517668.6993732-2.3180866-.6061235-4.7643087-2.9257112-5.4632292-2.3195877-.6989206-4.76739388.6057311-5.47842329 2.9238177z" fill="#ffcfd3"/><path d="m4.74408145 50.6717419 4.56923815 22.0276469-8.97528923 21.9344575h8.49738422l.45459257-1.6308147-5.82810989-.7804613 11.27156453-19.4183434-1.4570275-22.8663516z" fill="#0a3a7f"/><path d="m11.0734088 23.6351642c-.4429364-.396055-1.24721553-.0116487-1.3521215.5707852-.1165622.5824338.3030617 1.1648676.8392478 1.4327871-.4312801.4426497-.79262292.9435428-1.0723722 1.5026793-.73434185-1.1415703-1.38709015-2.3879787-1.56193345-3.7275764-.1748433-1.3512465.19815574-2.8306284 1.2355593-3.7042791.32637415-.2795682.69937318-.4775957 1.07237225-.6872719.5361861-.2912169 1.0723722-.5824338 1.6085583-.8852994.4312801-.2329735.8742165-.4775957 1.3637777-.465947.4662488.0116486.8858727.2446222 1.2821842.4775957.7110294.4077037 2.8790863 1.6075173 1.5502772 2.3297352-1.3521215.757164-4.7440814 2.737439-4.9655496 3.1567913z" fill="#0a3a7f"/><path d="m16.9131749 4.05373935-2.4711186-.10483808-.1165622 14.94525173-2.4244937 8.2589115-4.23120778 3.3431701.18649951 13.6522486-3.11221068 6.5232587 10.56053515-.9085967-2.0281823-5.0671742.7110294-4.2867129 1.0490598-2.4229247.8742165-1.5609226c.5245299-.9435428.5478423-2.0851131.0699373-3.0636019l-.7926229-1.5725713 3.1471793-10.6934848z" fill="#fff"/><path d="m17.344455 2.81897967c0 1.11827292-.9091851 2.02686967-2.0281822 2.02686967s-2.0281823-.90859675-2.0281823-2.02686967c0-1.11827293.9091852-2.02686968 2.0281823-2.02686968s2.0281822.90859675 2.0281822 2.02686968z" fill="#ffcfd3"/><g fill="#0a3a7f"><ellipse cx="7.110294" cy="20.746293" rx="2.354556" ry="2.353033"/><path d="m6.95876321 24.7068424c-.10490598 1.0600296.60612343 2.2481946 1.66683943 2.3297353.33803037.0232974.72268562-.0931894.83924782-.4077037.1165622-.2912169-.04662488-.6057311-.12821842-.896948-.18649951-.6406772-.03496866-1.3163005.01165622-1.980275.22146818-2.9121691-2.22633797-.6989206-2.38952505.9551914z"/><path d="m15.3046166 49.7631452 8.4274469 19.8027497-7.261825 15.7723077h5.2336427l-.2564368.6989206-8.3341971.5241904 5.8164536-16.0751733s-10.78200327-19.4882354-10.70040974-19.8260471c.08159354-.3378116 7.07532544-.896948 7.07532544-.896948z"/></g></g><g transform="translate(323.947329 94.114315)"><path d="m18.4284835 30.659316c.2214681.0116487.4662488.0349461.6644045-.0815407.209812-.1164868.3030617-.361109.3846553-.5824338 1.2122468-3.3198728.7226856-6.9892058.0582811-10.4605113-.104906-.5125418-.209812-1.0483809-.5012175-1.4793819-.582811-.8503534-1.7134643-1.0949756-2.7392116-1.0949756-.4545926 0-.9324976.0465947-1.3521215.2213248-.9791225.4193524-1.5269648 1.5026793-1.6202146 2.5627088-.0815935 1.0600296.209812 2.1084104.4895612 3.133494.5012175 1.8288421.9674663 3.6809817 1.3987464 5.5331212.1398746.6173798.1515309 1.7473015.7343419 2.0618157.5361861.2912169 1.8300265.1281355 2.4827748.1863788z" fill="#0a3a7f"/><g fill="#ffcfd3"><path d="m13.2181532 23.32065c.6177797 2.3413839 3.3803038 5.0671742 5.7232039 4.4497943 2.3429002-.6173798 3.3803038-4.3566049 2.7508679-6.6979889-.6177796-2.3413839-3.0306171-3.7275764-5.3735173-3.1101965-2.331244.6173798-3.7183341 3.0286558-3.1005545 5.3583911z"/><path d="m35.21344 2.46951938c0 1.11827292.9091851 2.02686967 2.0281822 2.02686967s2.0281822-.90859675 2.0281822-2.02686967c0-1.11827293-.9091851-2.02686968-2.0281822-2.02686968s-2.0281822.90859675-2.0281822 2.02686968z"/><path d="m15.2463355 48.1789252 1.4220588 23.355596-.8159354 21.9344575h8.4973842l.4545926-1.6308147-6.469202-.1281355 2.5876808-20.0706692 2.6576181-22.4237019z"/><path d="m12.5304363 47.8411136-1.8999639 19.721209-10.02434897 20.1638586 2.05149468 5.2768504h3.89317741l-2.33124396-1.7473014-1.13065332-4.0886854 9.67466246-15.1316305 8.9403205-23.0527304z"/></g><path d="m37.2416222 4.49638905-2.0281822-2.02686967-4.3244576 15.42284742-9.2783509 8.421993-6.5857642 3.0170071-.0582811 11.8350552-2.4361499 6.6746915 11.0500963 1.3745438-.1864995-8.6316692.1864995-9.4936711 10.9218779-11.9049472z" fill="#e06170"/><path d="m18.1487342 20.0240746c-.0932498.9202454-.4895612 1.7705988-.9091851 2.5976548-.3613429-.5474878-1.2588718-.5707852-1.7134644-.0931894-.4545925.4775957-.4196239 1.293003-.0116562 1.8055448s1.1189971.7338666 1.7717454.6406772c.0582811 2.3996273-.0466248 4.7992546-.3380303 7.1755846-1.3404653-.0465947-2.6809306-.1048381-4.0213959-.1514328-.4312801-3.4014135-.8625602-6.8610703-.4545925-10.2624838.0932497-.7222179.2098119-1.4444359.5012174-2.1084104.2914055-.6639746.7576543-1.2697057 1.3870902-1.619166.477905-.2562709 1.0140911-.361109 1.5502772-.3844064.3613428-.0232973 1.0140911-.1164867 1.3637777.0116487.8042792.2679196.9441538 1.7007068.8742165 2.3879787z" fill="#0a3a7f"/><path d="m12.5304363 47.8411136-1.8999639 19.721209 10.2924421 4.0770367 2.6576181-22.4237019z" fill="#0a3a7f"/><path d="m24.8044357 91.838164-.4545926 1.6308147h-8.4973842l.1398746-3.9489013h2.6343057l-.2914055 2.1899511z" fill="#0a3a7f"/></g><path d="m325.870605 179.184598 1.841683 1.036733-.676061 1.060029 1.130653 4.088685 2.331244 1.747302h-3.893177l-2.051495-5.27685z" fill="#0a3a7f"/><g transform="translate(362.412854 94.114315)"><path d="m22.6713475 54.7953733 2.3662126-24.3690308 3.0539296-26.06973756-2.3778689-.33781162-5.4201422 24.70684248-8.4624155.6756232-8.80044596-25.04465406-2.37786883.33781161 6.43423332 26.74536075-.33803038 22.6683241z" fill="#fff"/><g fill="#ffcfd3"><path d="m19.6057617 22.2839178c0 2.4229246-1.9699012 5.7660947-4.3827387 5.7660947-2.4244937 0-4.3827386-3.3431701-4.3827386-5.7660947 0-2.4229247 1.9699011-4.3799538 4.3827386-4.3799538 2.4128375-.0115972 4.3827387 1.9570291 4.3827387 4.3799538z"/><path d="m24.3614993 3.00535849c0 1.11827292.9091852 2.02686967 2.0281823 2.02686967s2.0281822-.90859675 2.0281822-2.02686967c0-1.11827293-.9091851-2.02686968-2.0281822-2.02686968s-2.0281823.90859675-2.0281823 2.02686968z"/><path d="m.65274831 3.68098171c0 1.11827293.90918514 2.02686968 2.02818224 2.02686968s2.02818224-.90859675 2.02818224-2.02686968c0-1.11827292-.90918514-2.02686967-2.02818224-2.02686967s-2.02818224.90859675-2.02818224 2.02686967z"/></g><path d="m16.9481436 20.15221c.5012174 0 1.223903-.1397841 1.5969021-.5008931.0349686-.034946.0582811-.069892.0815935-.1048381-.8042792-1.0017861-2.016526-1.6424633-3.4036162-1.6424633-2.4244937 0-4.3827386 1.9686263-4.3827386 4.3799023 0 1.7240041 1.0024349 3.9256039 2.4594624 5.0438768.0932497-.465947.1049059-.9435428.1165622-1.4211385.0233124-1.9103829-.0116563-3.8207658-.104906-5.7195001 1.2005906.0815408 2.4244937.0698921 3.6367406-.034946z" fill="#0a3a7f"/><path d="m13.3696841 22.8780003c-.2447806-.3028656-.6294359-.5241905-1.0257474-.4659471-.0932497.0116487-.1748433.034946-.2564368.0815407-.2098119.1164868-.3380304.361109-.372999.6057312-.1282184.6639746.268093 1.3628951.8392478 1.7356528.1631871.1048381.3380304.1863788.5361861.2096762.1864995.0232973.3963115-.0232974.5478423-.1397842.5361862-.4542983.0815936-1.5842199-.268093-2.0268696z" fill="#ffcfd3"/><path d="m6.74895125 54.1081014 2.3545564 37.3806023h2.58768075l2.1913694-37.0777367 2.3079315.1048381 1.4220588 37.893144 1.9932136-.0465947 3.0655858-37.5669811.4429363-4.6361731-16.30705145.2096761z" fill="#0a3a7f"/><path d="m9.10350765 91.4887037-5.68823525.6290285.19815573.8852994h8.33419717l-.2564369-1.5143279z" fill="#0a3a7f"/><path d="m17.6125481 92.4089491v1.0600296l7.8096672.2912169v-.9784888l-5.8164536-.4193524z" fill="#0a3a7f"/></g><g transform="translate(497.625004 93.949448)"><path d="m4.09133314 58.0005455 3.38030374 15.9120918-2.02818224 20.3036428 2.70424299.3378116 5.42014217-21.3170776-2.3662126-18.6262334-8.12438518.3494603z" fill="#0a3a7f"/><path d="m18.987982 54.2729691-7.7863548.3378116 17.2745177 37.9164413 2.704243-1.0134348z" fill="#0a3a7f"/><path d="m3.07724202 54.960241-2.37786883-24.3690309 5.1870178-27.86363368 2.41283749.17473014-2.85577384 25.98819684 8.46241556.6756232 8.8121022-25.04465403 2.3662126.33781161-6.4342334 26.74536082.3380304 22.6683241z" fill="#fff"/><g fill="#ffcfd3"><path d="m14.9083051 22.4487854c0 2.4229247-1.9699011 5.7660948-4.3827386 5.7660948-2.41283753 0-4.38273868-3.3431701-4.38273868-5.7660948s1.96990115-4.3799023 4.38273868-4.3799023c2.4128375 0 4.3827386 1.9569776 4.3827386 4.3799023z"/><path d="m4.86064365 2.3897648c-.1165622-1.11827292.69937318-2.10841041 1.80671406-2.22489717 1.1189971-.11648676 2.10977578.69892058 2.22633798 1.80554483.1165622 1.11827292-.69937318 2.10841041-1.80671406 2.22489717-1.1189971.12813544-2.10977578-.6872719-2.22633798-1.80554483z"/><path d="m25.084185 3.84584934c0 1.11827293-.9091852 2.02686968-2.0281823 2.02686968s-2.0281822-.90859675-2.0281822-2.02686968c0-1.11827292.9091851-2.02686967 2.0281822-2.02686967s2.0281823.90859675 2.0281823 2.02686967z"/></g><path d="m12.250687 20.3170776c.5012174 0 1.2239031-.1397841 1.5969021-.500893.0349687-.0349461.0582811-.0698921.0815935-.1048381-.8042791-1.0017862-2.016526-1.6424634-3.4036161-1.6424634-2.42449375 0-4.38273868 1.9686263-4.38273868 4.3799023 0 1.7240041 1.0024349 3.9256039 2.45946238 5.0438768.09324976-.465947.10490598-.9435427.1165622-1.4211385.02331243-1.9103829-.01165622-3.8207658-.10490598-5.7195 1.20059063.0815407 2.42449368.069892 3.63674058-.0349461z" fill="#0a3a7f"/><path d="m8.67222752 23.0428679c-.24478062-.3028656-.62943587-.5241904-1.02574734-.4659471-.09324976.0116487-.1748433.0349461-.25643684.0815408-.20981196.1164867-.33803037.3611089-.37299903.6057311-.12821842.6639746.26809305 1.3628952.83924782 1.7356528.16318708.1048381.33803038.1863788.53618611.2096762.18649952.0232973.39631147-.0232974.54784233-.1397841.54784233-.4542984.08159354-1.58422-.26809305-2.0268697z" fill="#ffcfd3"/><path d="m28.7325818 93.8085764v.7455153l8.6372588-3.9721986-.7809667-.6057312-5.408486 1.5376253-2.704243 1.0134348z" fill="#0a3a7f"/><path d="m8.14769763 94.5540917 3.55514707.9085968v.3494603s-6.25939006-.2446222-6.23607762-.326163c.02331244-.0815407-.02331244-1.2697057-.02331244-1.2697057z" fill="#0a3a7f"/></g><g transform="translate(191.066423 92.949448)"><path d="m21.7738185 3.63438701c.1515309.38440631-.3613428 12.18451539-.3613428 12.18451539l-2.599337 14.6773322 4.5109571.069892 1.4104026-14.933603-.3380304-12.31265085z" fill="#fff"/><path d="m20.0020731 21.8179707c-.6993731 2.3180866.209812 6.0922577 2.5177435 6.7911783 2.3195878.6989206 5.1753616-1.9336803 5.8747348-4.2517668.6993732-2.3180866-.6061234-4.7643087-2.9257112-5.4632292-2.3195877-.6989206-4.7673939.6057311-5.4667671 2.9238177z" fill="#ffcfd3"/><g fill="#0a3a7f"><path d="m16.8315814 52.4190434 3.6367405 20.2803454-.8275916 21.9344575h8.4973842l.4662488-1.6308147-5.8281099-.7804613 3.1005545-19.4183434-.3846552-19.9891285z"/><path d="m14.0224324 52.1394751-.7693105 16.5877151-13.0199975 17.2866356 1.56193345 8.1540734h3.88152118l-2.33124395-1.7473014-.38465526-5.2419043 12.42553028-13.9784116 10.1059426-20.3851835z"/><path d="m22.7179724 20.5948597c-.2214682.4193524-.2680931 2.6326009-.4895613 3.0519532-.4429363-.396055-1.2472155-.0116487-1.3521215.5707851-.1165622.5824339.3030617 1.1648677.8392478 1.4327872-.4312801.4426497-.7926229.9435428-1.0723722 1.5026793-.7343418-1.1415703-1.3870901-2.3879787-1.5619334-3.7275765-.1748433-1.3512464.1981557-2.8306283 1.2355593-3.704279.3263741-.2795682.6993732-.4775957 1.0723722-.6872719.5361861-.2912169 1.0723722-.5824338 1.6085583-.8852994.4312802-.2329735.8742165-.4775957 1.3637777-.4659471.4662488.0116487.8858727.2446222 1.2821842.4775958.7110294.4077036 2.8790863 1.6075173 1.5502772 2.3297352-1.3521214.7455153-3.0539295-.5241904-4.4759883.1048381z"/></g><path d="m28.056521 4.05373935-2.4711186-.10483808-.1165622 14.94525173-2.4244937 8.2589115-4.2312078 3.3431701-4.7907063 21.6432405 11.4697203.6756233.8392478-21.0258608 3.1355231-10.6934848z" fill="#fff"/><path d="m28.4878011 2.81897967c0 1.11827292-.9091851 2.02686967-2.0281822 2.02686967s-2.0281822-.90859675-2.0281822-2.02686967c0-1.11827293.9091851-2.02686968 2.0281822-2.02686968s2.0281822.90859675 2.0281822 2.02686968z" fill="#ffcfd3"/><path d="m14.2439006 4.17022612c0 1.11827292-.9091852 2.02686967-2.0281823 2.02686967s-2.0281822-.90859675-2.0281822-2.02686967c0-1.11827293.9091851-2.02686968 2.0281822-2.02686968s2.0281823.90859675 2.0281823 2.02686968z" fill="#ffcfd3"/></g><g transform="translate(468.484454 92.949448)"><path d="m20.0253856 18.171935c.3496866-.2329735.8275916-.0465947 1.1539657.2096762.3263742.2562709.6177797.6057312 1.0257474.6989206.1631871.034946.3380304.034946.5012174.069892.687717.1397842 1.0956847 1.0483809.7459981 1.6541121-.0815935.1397841-.1981557.2679195-.2214682.431001-.0582811.3727576.3496866.6173798.5478424.9435428.4662487.7455153-.2797493 1.7705988.058281 2.5860061.1515309.3727577.5012175.6173799.7809668.8969481.2797492.2795682.5361861.6756232.4196239 1.0600295-.1631871.5008931-.8275916.6173799-1.3404653.4775958-.5012174-.1397841-.9791224-.4310011-1.5036523-.4193524-.2680931.0116487-.5361861.0931894-.8042792.0931894-.5711548-.0232973-1.0490598-.4892444-1.2938404-1.0134348s-.3147179-1.1066243-.477905-1.654112c-.209812-.7105693-.5594986-1.3745438-1.0257474-1.945329-.4079676-.5008931-.9441538-1.0949756-.6993731-1.689058.163187-.4077037.6177796-.5940825.9791224-.8387047.3380304-.2329736.5944672-.6290286.4545926-1.0483809.3030617-.0931894.4545926-.3494603.6993732-.5125418z" fill="#0a3a7f"/><path d="m26.1332447 55.960241-.9324975-12.9183821 1.4453712-9.5053198 7.2152001-29.36631298-2.3778689-.33781162-7.7280737 26.0580889-8.4624155.6756232-11.07340884-26.01149417-2.36621262.33781162 8.69553996 27.71220095 2.2613066 10.2158891-.268093 12.452435z" fill="#e06170"/><path d="m14.2905254 23.4487854c0 2.4229247 1.9699012 5.7660948 4.3827387 5.7660948s4.3827386-3.3431701 4.3827386-5.7660948-1.9699011-4.3799023-4.3827386-4.3799023-4.3827387 1.9569776-4.3827387 4.3799023z" fill="#ffcfd3"/><path d="m31.2270128 2.91216908c0 1.11827292.9091851 2.02686967 2.0281822 2.02686967s2.0281823-.90859675 2.0281823-2.02686967c0-1.11827293-.9091852-2.02686968-2.0281823-2.02686968s-2.0281822.90859675-2.0281822 2.02686968z" fill="#ffcfd3"/><path d="m20.526603 24.0428679c.2447806-.3028656.6294359-.5241904 1.0257474-.4659471.0932497.0116487.1748433.0349461.2564368.0815408.209812.1164867.3380304.3611089.372999.6057311.1282185.6639746-.268093 1.3628952-.8392478 1.7356528-.1631871.1048381-.3380304.1863788-.5361861.2096762-.1864995.0232973-.3963115-.0232974-.5478423-.1397841-.5361861-.4542984-.0815936-1.58422.268093-2.0268697z" fill="#ffcfd3"/><path d="m12.6003736 46.7927327 12.9617164-.6057312 9.9660679 44.6027816 8.5206966 3.8440632-9.5347877.1747301-13.2647781-36.7632224.1981557 16.6692558-8.9869455 11.9165959-.5828109 4.2983615-.2331244 1.8288422-1.6085584-.1863788-.29140546-6.5582048 6.97041946-11.3108647-4.9189248-18.7310715z" fill="#0a3a7f"/><path d="m27.3105229 17.9156642 2.914055 1.0134348 3.6367406-14.75887288-2.3778689-.33781162z" fill="#ffcfd3"/><path d="m9.27835094 16.3197955-3.43858483 1.2697057-3.98642717-12.69705715 2.36621262-.33781162z" fill="#ffcfd3"/><path d="m.79262295 3.20338598c0 1.11827293.90918514 2.02686968 2.02818224 2.02686968s2.02818224-.90859675 2.02818224-2.02686968c0-1.11827292-.90918514-2.02686967-2.02818224-2.02686967s-2.02818224.89694807-2.02818224 2.02686967z" fill="#ffcfd3"/><g fill="#0a3a7f"><path d="m20.9578832 20.5599137c-.2331244.4193523-.7226857.5940825-1.1539658.79211s-.8975289.500893-.95581.9784888c-.0699373.5474878.4545926 1.0600295.3030617 1.58422-.209812.7455152-1.5502772.8037586-1.5969021 1.5842199-.0116562.2562709.1282184.4892444.2331244.722218.1631871.3844063.1981557.8736507-.104906 1.1532189-.209812.1980275-.5245299.2446222-.8042792.3378116-.2797492.0931894-.5711547.2912169-.5711547.5824338 0 .3145143.3496866.6173799.1981557.8852994-.1165622.2096762-.4196239.1863789-.6527483.1397842-.4662488-.1048381-.9791225-.2329736-1.2239031-.6406772-.1398746-.2329736-.1748433-.5008931-.2914055-.7455153-.3846552-.8037587-1.5036523-.8852994-2.1797131-1.4793819-.7809667-.6872719-.7226856-2.1084104.1165622-2.7257903.3263742-.2329735.7343419-.3611089 1.0140911-.6523258.3613429-.3727577.4429364-.9551915.3613429-1.4677333-.0699374-.5241904-.2680931-1.0134348-.3613429-1.5259766-.0582811-.2912169-.0699373-.6290285.104906-.8736507.2447806-.3378116.7576543-.3378116 1.1539658-.2213248.3963115.1164867.7809667.3261629 1.2005906.3261629 1.0024349-.0116487 1.6668395-1.2347597 2.6692744-1.258057.7343418-.0116487 1.2355592.5940825 1.7834016.9784888.5245299.3844063 1.2005906.7338666.7576543 1.5259766z"/><path d="m20.4450095 33.3385116c0 .431001-.3496866.7804613-.7809667.7804613-.4312802 0-.7809668-.3494603-.7809668-.7804613s.3496866-.7804613.7809668-.7804613c.4312801 0 .7809667.3494603.7809667.7804613z"/><ellipse cx="19.664043" cy="38.184361" rx="1" ry="1"/></g></g><g transform="translate(220.206973 92.949448)"><path d="m16.5751445 3.63438701c.1515309.38440631-.3613428 12.18451539-.3613428 12.18451539l-2.599337 14.6773322 4.5109571.069892 1.4104026-14.933603-.3380304-12.31265085z" fill="#79bae2"/><path d="m14.7917429 21.8179707c-.6993732 2.3180866.209812 6.0922577 2.5177435 6.7911783 2.3195877.6989206 5.1753616-1.9336803 5.8747347-4.2517668.6993732-2.3180866-.6061234-4.7643087-2.9257111-5.4632292-2.3079315-.6989206-4.7557377.6057311-5.4667671 2.9238177z" fill="#ffcfd3"/><path d="m11.8543755 51.6968254 10.3973481 19.8376958-7.8096673 23.0993251h8.4973842l.4545926-1.6308147-5.8281099-.7804613 10.1059426-20.583211-6.9937319-20.9676174z" fill="#0a3a7f"/><path d="m17.0180809 23.6351642c-.4429364-.396055-1.2355593-.0116487-1.3521215.5707852-.1165622.5824338.3030617 1.1648676.8392478 1.4327871-.4312801.4426497-.7926229.9435428-1.0723722 1.5026793-.7343419-1.1415703-1.3870902-2.3879787-1.5619335-3.7275764-.1748433-1.3512465.1981558-2.8306284 1.2355593-3.7042791.3263742-.2795682.6993732-.4775957 1.0723723-.6872719.5361861-.2912169 1.0723722-.5824338 1.6085583-.8852994.4312801-.2329735.8742165-.4775957 1.3637777-.465947.4662488.0116486.8858727.2446222 1.2821842.4775957.7110294.4077037 2.8790863 1.6075173 1.5502772 2.3297352-1.3521215.757164-4.7440814 2.737439-4.9655496 3.1567913z" fill="#0a3a7f"/><path d="m22.857847 4.05373935-2.4711186-.10483808-.1165622 14.94525173-2.4244937 8.2589115-4.2312078 3.3431701-1.1772782 8.526831-.582811 12.6737598 8.8237584-1.0250835-.7459981-10.2624838 1.0490598-2.4229247.8742165-1.5609226c.5245299-.9435428.5478423-2.0851131.0699373-3.0636019l-.7926229-1.5725713 3.1471793-10.6934848z" fill="#e06170"/><path d="m23.2891271 2.81897967c0 1.11827292-.9091851 2.02686967-2.0281822 2.02686967s-2.0281823-.90859675-2.0281823-2.02686967c0-1.11827293.9091852-2.02686968 2.0281823-2.02686968s2.0281822.90859675 2.0281822 2.02686968z" fill="#ffcfd3"/><g fill="#0a3a7f"><path d="m12.9034353 24.7068424c-.104906 1.0600296.6061234 2.2481946 1.6668394 2.3297353.3380304.0232974.7226857-.0931894.8392478-.4077037.1165622-.2912169-.0466248-.6057311-.1282184-.896948-.1864995-.6406772-.0349686-1.3163005.0116563-1.980275.2214681-2.9121691-2.226338-.6989206-2.3895251.9551914z"/><path d="m16.598457 22.1790797c.7576543-.2096762 1.5502772.069892 2.3312439.1048381.1748433.0116486.3613428-.0232974.5361861-.0465947.209812-1.2697058.6177797-2.5161141.792623-3.7858198-.7110294-.5707852-1.4220588-.5824338-2.4244937-.3378116-1.3521215.3145142-2.8441177.7338666-3.5901157 1.9103829-.2331244.3727576-.3729991.8037586-.6177797 1.1765163-.4312801.6639745-1.1423095 1.1182729-1.5852459 1.7822474-.3380303.4892445-.5012174 1.0949756-.4662488 1.6890581.0349687.7338666.3613429 1.5026793.0699374 2.1783025-.3846553.8852994-1.69015191 1.188165-1.88830764 2.1433564-.1748433.8503534.67606074 1.58422.76931054 2.4578707.1165622.9668402-.72268567 1.8404909-.69937323 2.8189797.01165622.862002.71102943 1.58422 1.50365233 1.9103829.792623.3261629 1.6784957.3145143 2.5410559.3028656.8392479-.0116487 1.7367768-.034946 2.4478062-.4892444.477905-.3028656.8275916-.7804613 1.0840284-1.2813544.6061235-1.1998137.6993732-2.5860062.792623-3.9256039.0699373-1.0949756.1398746-2.1899512.0932497-3.2732781-.0233124-.4426497-.0815935-.9318941-.4079677-1.2464083-.372999-.3494603-.9324975-.3378116-1.4104026-.5008931-.745998-.2679196-1.2705279-1.0367322-1.2355592-1.8288422.0233124-.8154073.6061234-1.5492739 1.3637777-1.7589501z"/><path d="m10.6770973 70.497789 1.1772782-18.8009636 8.8237584-1.0250835-5.1403929 22.4819453-11.97093775 14.0832496-.9441538 4.2051722.87421648.8736507-.29140549 1.2114623-2.2379942-1.3978411-.64109209-5.8243382 1.71346431-.396055z"/></g></g></g></g></svg>