<svg height="333" viewBox="0 0 155 333" width="155" xmlns="http://www.w3.org/2000/svg"><path d="m152.50093 328c1.380722 0 2.49907 1.118764 2.49907 2.5 0 1.383098-1.118348 2.5-2.49907 2.5s-2.50093-1.116902-2.50093-2.5c0-1.381236 1.120208-2.5 2.50093-2.5zm-150.00186041 0c1.380722 0 2.50093041 1.118764 2.50093041 2.5 0 1.383098-1.12020841 2.5-2.50093041 2.5-1.37886118 0-2.49906959-1.116902-2.49906959-2.5 0-1.381236 1.12020841-2.5 2.49906959-2.5zm21.00000001 0c1.380722 0 2.5009304 1.118764 2.5009304 2.5 0 1.383098-1.1202084 2.5-2.5009304 2.5s-2.4990696-1.116902-2.4990696-2.5c0-1.381236 1.1183476-2.5 2.4990696-2.5zm22.0009304 0c1.381236 0 2.5 1.118764 2.5 2.5 0 1.383098-1.118764 2.5-2.5 2.5s-2.5-1.116902-2.5-2.5c0-1.381236 1.118764-2.5 2.5-2.5zm21.0009304 0c1.3788612 0 2.4990696 1.118764 2.4990696 2.5 0 1.383098-1.1202084 2.5-2.4990696 2.5-1.3825828 0-2.5009304-1.116902-2.5009304-2.5 0-1.381236 1.1183476-2.5 2.5009304-2.5zm22 0c1.3788612 0 2.4990696 1.118764 2.4990696 2.5 0 1.383098-1.1202084 2.5-2.4990696 2.5-1.3825828 0-2.5009304-1.116902-2.5009304-2.5 0-1.381236 1.1183476-2.5 2.5009304-2.5zm20.9981396 0c1.380722 0 2.50093 1.118764 2.50093 2.5 0 1.383098-1.120208 2.5-2.50093 2.5s-2.49907-1.116902-2.49907-2.5c0-1.381236 1.118348-2.5 2.49907-2.5zm22.00186 0c1.380722 0 2.49907 1.118764 2.49907 2.5 0 1.383098-1.118348 2.5-2.49907 2.5s-2.50093-1.116902-2.50093-2.5c0-1.381236 1.120208-2.5 2.50093-2.5zm-64.9999996-26c1.3788612 0 2.4990696 1.120208 2.4990696 2.50093s-1.1202084 2.49907-2.4990696 2.49907c-1.3825828 0-2.5009304-1.118348-2.5009304-2.49907s1.1183476-2.50093 2.5009304-2.50093zm22 0c1.3788612 0 2.4990696 1.120208 2.4990696 2.50093s-1.1202084 2.49907-2.4990696 2.49907c-1.3825828 0-2.5009304-1.118348-2.5009304-2.49907s1.1183476-2.50093 2.5009304-2.50093zm-86.00186081 0c1.380722 0 2.50093041 1.120208 2.50093041 2.50093s-1.12020841 2.49907-2.50093041 2.49907c-1.37886118 0-2.49906959-1.118348-2.49906959-2.49907s1.12020841-2.50093 2.49906959-2.50093zm107.00000041 0c1.380722 0 2.50093 1.120208 2.50093 2.50093s-1.120208 2.49907-2.50093 2.49907-2.49907-1.118348-2.49907-2.49907 1.118348-2.50093 2.49907-2.50093zm-86.0000004 0c1.380722 0 2.5009304 1.120208 2.5009304 2.50093s-1.1202084 2.49907-2.5009304 2.49907-2.4990696-1.118348-2.4990696-2.49907 1.1183476-2.50093 2.4990696-2.50093zm108.0018604 0c1.380722 0 2.49907 1.120208 2.49907 2.50093s-1.118348 2.49907-2.49907 2.49907-2.50093-1.118348-2.50093-2.49907 1.120208-2.50093 2.50093-2.50093zm-86.00093 0c1.381236 0 2.5 1.120208 2.5 2.50093s-1.118764 2.49907-2.5 2.49907-2.5-1.118348-2.5-2.49907 1.118764-2.50093 2.5-2.50093zm107.00093 0c1.380722 0 2.49907 1.120208 2.49907 2.50093s-1.118348 2.49907-2.49907 2.49907-2.50093-1.118348-2.50093-2.49907 1.120208-2.50093 2.50093-2.50093zm-150.00186041-26c1.380722 0 2.50093041 1.120625 2.50093041 2.501862 0 1.381236-1.12020841 2.498138-2.50093041 2.498138-1.37886118 0-2.49906959-1.116902-2.49906959-2.498138 0-1.381237 1.12020841-2.501862 2.49906959-2.501862zm21.00000001 0c1.380722 0 2.5009304 1.120625 2.5009304 2.501862 0 1.381236-1.1202084 2.498138-2.5009304 2.498138s-2.4990696-1.116902-2.4990696-2.498138c0-1.381237 1.1183476-2.501862 2.4990696-2.501862zm22.0009304 0c1.381236 0 2.5 1.120625 2.5 2.501862 0 1.381236-1.118764 2.498138-2.5 2.498138s-2.5-1.116902-2.5-2.498138c0-1.381237 1.118764-2.501862 2.5-2.501862zm21.0009304 0c1.3788612 0 2.4990696 1.120625 2.4990696 2.501862 0 1.381236-1.1202084 2.498138-2.4990696 2.498138-1.3825828 0-2.5009304-1.116902-2.5009304-2.498138 0-1.381237 1.1183476-2.501862 2.5009304-2.501862zm22 0c1.3788612 0 2.4990696 1.120625 2.4990696 2.501862 0 1.381236-1.1202084 2.498138-2.4990696 2.498138-1.3825828 0-2.5009304-1.116902-2.5009304-2.498138 0-1.381237 1.1183476-2.501862 2.5009304-2.501862zm20.9981396 0c1.380722 0 2.50093 1.120625 2.50093 2.501862 0 1.381236-1.120208 2.498138-2.50093 2.498138s-2.49907-1.116902-2.49907-2.498138c0-1.381237 1.118348-2.501862 2.49907-2.501862zm22.00186 0c1.380722 0 2.49907 1.120625 2.49907 2.501862 0 1.381236-1.118348 2.498138-2.49907 2.498138s-2.50093-1.116902-2.50093-2.498138c0-1.381237 1.120208-2.501862 2.50093-2.501862zm21 0c1.380722 0 2.49907 1.120625 2.49907 2.501862 0 1.381236-1.118348 2.498138-2.49907 2.498138s-2.50093-1.116902-2.50093-2.498138c0-1.381237 1.120208-2.501862 2.50093-2.501862zm-85.9999996-25c1.3788612 0 2.4990696 1.118764 2.4990696 2.5 0 1.383098-1.1202084 2.5-2.4990696 2.5-1.3825828 0-2.5009304-1.116902-2.5009304-2.5 0-1.381236 1.1183476-2.5 2.5009304-2.5zm-43.0018608 0c1.380722 0 2.5009304 1.118764 2.5009304 2.5 0 1.383098-1.1202084 2.5-2.5009304 2.5s-2.4990696-1.116902-2.4990696-2.5c0-1.381236 1.1183476-2.5 2.4990696-2.5zm-21.00000001 0c1.380722 0 2.50093041 1.118764 2.50093041 2.5 0 1.383098-1.12020841 2.5-2.50093041 2.5-1.37886118 0-2.49906959-1.116902-2.49906959-2.5 0-1.381236 1.12020841-2.5 2.49906959-2.5zm86.00186081 0c1.3788612 0 2.4990696 1.118764 2.4990696 2.5 0 1.383098-1.1202084 2.5-2.4990696 2.5-1.3825828 0-2.5009304-1.116902-2.5009304-2.5 0-1.381236 1.1183476-2.5 2.5009304-2.5zm20.9981396 0c1.380722 0 2.50093 1.118764 2.50093 2.5 0 1.383098-1.120208 2.5-2.50093 2.5s-2.49907-1.116902-2.49907-2.5c0-1.381236 1.118348-2.5 2.49907-2.5zm43.00186 0c1.380722 0 2.49907 1.118764 2.49907 2.5 0 1.383098-1.118348 2.5-2.49907 2.5s-2.50093-1.116902-2.50093-2.5c0-1.381236 1.120208-2.5 2.50093-2.5zm-107.00093 0c1.381236 0 2.5 1.118764 2.5 2.5 0 1.383098-1.118764 2.5-2.5 2.5s-2.5-1.116902-2.5-2.5c0-1.381236 1.118764-2.5 2.5-2.5zm86.00093 0c1.380722 0 2.49907 1.118764 2.49907 2.5 0 1.383098-1.118348 2.5-2.49907 2.5s-2.50093-1.116902-2.50093-2.5c0-1.381236 1.120208-2.5 2.50093-2.5zm-22.00186-25c1.380722 0 2.50093 1.120208 2.50093 2.50093 0 1.378862-1.120208 2.49907-2.50093 2.49907s-2.49907-1.120208-2.49907-2.49907c0-1.380722 1.118348-2.50093 2.49907-2.50093zm22.00186 0c1.380722 0 2.49907 1.120208 2.49907 2.50093 0 1.378862-1.118348 2.49907-2.49907 2.49907s-2.50093-1.120208-2.50093-2.49907c0-1.380722 1.120208-2.50093 2.50093-2.50093zm-86.00093 0c1.381236 0 2.5 1.120208 2.5 2.50093 0 1.378862-1.118764 2.49907-2.5 2.49907s-2.5-1.120208-2.5-2.49907c0-1.380722 1.118764-2.50093 2.5-2.50093zm-43.00093041 0c1.380722 0 2.50093041 1.120208 2.50093041 2.50093 0 1.378862-1.12020841 2.49907-2.50093041 2.49907-1.37886118 0-2.49906959-1.120208-2.49906959-2.49907 0-1.380722 1.12020841-2.50093 2.49906959-2.50093zm86.00186081 0c1.3788612 0 2.4990696 1.120208 2.4990696 2.50093 0 1.378862-1.1202084 2.49907-2.4990696 2.49907-1.3825828 0-2.5009304-1.120208-2.5009304-2.49907 0-1.380722 1.1183476-2.50093 2.5009304-2.50093zm63.9999996 0c1.380722 0 2.49907 1.120208 2.49907 2.50093 0 1.378862-1.118348 2.49907-2.49907 2.49907s-2.50093-1.120208-2.50093-2.49907c0-1.380722 1.120208-2.50093 2.50093-2.50093zm-85.9999996 0c1.3788612 0 2.4990696 1.120208 2.4990696 2.50093 0 1.378862-1.1202084 2.49907-2.4990696 2.49907-1.3825828 0-2.5009304-1.120208-2.5009304-2.49907 0-1.380722 1.1183476-2.50093 2.5009304-2.50093zm-43.0018608 0c1.380722 0 2.5009304 1.120208 2.5009304 2.50093 0 1.378862-1.1202084 2.49907-2.5009304 2.49907s-2.4990696-1.120208-2.4990696-2.49907c0-1.380722 1.1183476-2.50093 2.4990696-2.50093zm-21.00000001-26c1.380722 0 2.50093041 1.118764 2.50093041 2.501862 0 1.379374-1.12020841 2.498138-2.50093041 2.498138-1.37886118 0-2.49906959-1.118764-2.49906959-2.498138 0-1.383098 1.12020841-2.501862 2.49906959-2.501862zm64.00186081 0c1.3788612 0 2.4990696 1.118764 2.4990696 2.501862 0 1.379374-1.1202084 2.498138-2.4990696 2.498138-1.3825828 0-2.5009304-1.118764-2.5009304-2.498138 0-1.383098 1.1183476-2.501862 2.5009304-2.501862zm22 0c1.3788612 0 2.4990696 1.118764 2.4990696 2.501862 0 1.379374-1.1202084 2.498138-2.4990696 2.498138-1.3825828 0-2.5009304-1.118764-2.5009304-2.498138 0-1.383098 1.1183476-2.501862 2.5009304-2.501862zm20.9981396 0c1.380722 0 2.50093 1.118764 2.50093 2.501862 0 1.379374-1.120208 2.498138-2.50093 2.498138s-2.49907-1.118764-2.49907-2.498138c0-1.383098 1.118348-2.501862 2.49907-2.501862zm22.00186 0c1.380722 0 2.49907 1.118764 2.49907 2.501862 0 1.379374-1.118348 2.498138-2.49907 2.498138s-2.50093-1.118764-2.50093-2.498138c0-1.383098 1.120208-2.501862 2.50093-2.501862zm21 0c1.380722 0 2.49907 1.118764 2.49907 2.501862 0 1.379374-1.118348 2.498138-2.49907 2.498138s-2.50093-1.118764-2.50093-2.498138c0-1.383098 1.120208-2.501862 2.50093-2.501862zm-129.0018604 0c1.380722 0 2.5009304 1.118764 2.5009304 2.501862 0 1.379374-1.1202084 2.498138-2.5009304 2.498138s-2.4990696-1.118764-2.4990696-2.498138c0-1.383098 1.1183476-2.501862 2.4990696-2.501862zm22.0009304 0c1.381236 0 2.5 1.118764 2.5 2.501862 0 1.379374-1.118764 2.498138-2.5 2.498138s-2.5-1.118764-2.5-2.498138c0-1.383098 1.118764-2.501862 2.5-2.501862zm-43.00093041-26c1.380722 0 2.50093041 1.120208 2.50093041 2.50093 0 1.378862-1.12020841 2.49907-2.50093041 2.49907-1.37886118 0-2.49906959-1.120208-2.49906959-2.49907 0-1.380722 1.12020841-2.50093 2.49906959-2.50093zm21.00000001 0c1.380722 0 2.5009304 1.120208 2.5009304 2.50093 0 1.378862-1.1202084 2.49907-2.5009304 2.49907s-2.4990696-1.120208-2.4990696-2.49907c0-1.380722 1.1183476-2.50093 2.4990696-2.50093zm22.0009304 0c1.381236 0 2.5 1.120208 2.5 2.50093 0 1.378862-1.118764 2.49907-2.5 2.49907s-2.5-1.120208-2.5-2.49907c0-1.380722 1.118764-2.50093 2.5-2.50093zm21.0009304 0c1.3788612 0 2.4990696 1.120208 2.4990696 2.50093 0 1.378862-1.1202084 2.49907-2.4990696 2.49907-1.3825828 0-2.5009304-1.120208-2.5009304-2.49907 0-1.380722 1.1183476-2.50093 2.5009304-2.50093zm22 0c1.3788612 0 2.4990696 1.120208 2.4990696 2.50093 0 1.378862-1.1202084 2.49907-2.4990696 2.49907-1.3825828 0-2.5009304-1.120208-2.5009304-2.49907 0-1.380722 1.1183476-2.50093 2.5009304-2.50093zm20.9981396 0c1.380722 0 2.50093 1.120208 2.50093 2.50093 0 1.378862-1.120208 2.49907-2.50093 2.49907s-2.49907-1.120208-2.49907-2.49907c0-1.380722 1.118348-2.50093 2.49907-2.50093zm22.00186 0c1.380722 0 2.49907 1.120208 2.49907 2.50093 0 1.378862-1.118348 2.49907-2.49907 2.49907s-2.50093-1.120208-2.50093-2.49907c0-1.380722 1.120208-2.50093 2.50093-2.50093zm21 0c1.380722 0 2.49907 1.120208 2.49907 2.50093 0 1.378862-1.118348 2.49907-2.49907 2.49907s-2.50093-1.120208-2.50093-2.49907c0-1.380722 1.120208-2.50093 2.50093-2.50093zm0-20c1.380722 0 2.49907 1.118764 2.49907 2.5 0 1.383098-1.118348 2.5-2.49907 2.5s-2.50093-1.116902-2.50093-2.5c0-1.381236 1.120208-2.5 2.50093-2.5zm-150.00186041 0c1.380722 0 2.50093041 1.118764 2.50093041 2.5 0 1.383098-1.12020841 2.5-2.50093041 2.5-1.37886118 0-2.49906959-1.116902-2.49906959-2.5 0-1.381236 1.12020841-2.5 2.49906959-2.5zm21.00000001 0c1.380722 0 2.5009304 1.118764 2.5009304 2.5 0 1.383098-1.1202084 2.5-2.5009304 2.5s-2.4990696-1.116902-2.4990696-2.5c0-1.381236 1.1183476-2.5 2.4990696-2.5zm22.0009304 0c1.381236 0 2.5 1.118764 2.5 2.5 0 1.383098-1.118764 2.5-2.5 2.5s-2.5-1.116902-2.5-2.5c0-1.381236 1.118764-2.5 2.5-2.5zm21.0009304 0c1.3788612 0 2.4990696 1.118764 2.4990696 2.5 0 1.383098-1.1202084 2.5-2.4990696 2.5-1.3825828 0-2.5009304-1.116902-2.5009304-2.5 0-1.381236 1.1183476-2.5 2.5009304-2.5zm22 0c1.3788612 0 2.4990696 1.118764 2.4990696 2.5 0 1.383098-1.1202084 2.5-2.4990696 2.5-1.3825828 0-2.5009304-1.116902-2.5009304-2.5 0-1.381236 1.1183476-2.5 2.5009304-2.5zm20.9981396 0c1.380722 0 2.50093 1.118764 2.50093 2.5 0 1.383098-1.120208 2.5-2.50093 2.5s-2.49907-1.116902-2.49907-2.5c0-1.381236 1.118348-2.5 2.49907-2.5zm22.00186 0c1.380722 0 2.49907 1.118764 2.49907 2.5 0 1.383098-1.118348 2.5-2.49907 2.5s-2.50093-1.116902-2.50093-2.5c0-1.381236 1.120208-2.5 2.50093-2.5zm-64.9999996-26c1.3788612 0 2.4990696 1.120208 2.4990696 2.50093s-1.1202084 2.49907-2.4990696 2.49907c-1.3825828 0-2.5009304-1.118348-2.5009304-2.49907s1.1183476-2.50093 2.5009304-2.50093zm22 0c1.3788612 0 2.4990696 1.120208 2.4990696 2.50093s-1.1202084 2.49907-2.4990696 2.49907c-1.3825828 0-2.5009304-1.118348-2.5009304-2.49907s1.1183476-2.50093 2.5009304-2.50093zm-86.00186081 0c1.380722 0 2.50093041 1.120208 2.50093041 2.50093s-1.12020841 2.49907-2.50093041 2.49907c-1.37886118 0-2.49906959-1.118348-2.49906959-2.49907s1.12020841-2.50093 2.49906959-2.50093zm107.00000041 0c1.380722 0 2.50093 1.120208 2.50093 2.50093s-1.120208 2.49907-2.50093 2.49907-2.49907-1.118348-2.49907-2.49907 1.118348-2.50093 2.49907-2.50093zm-86.0000004 0c1.380722 0 2.5009304 1.120208 2.5009304 2.50093s-1.1202084 2.49907-2.5009304 2.49907-2.4990696-1.118348-2.4990696-2.49907 1.1183476-2.50093 2.4990696-2.50093zm108.0018604 0c1.380722 0 2.49907 1.120208 2.49907 2.50093s-1.118348 2.49907-2.49907 2.49907-2.50093-1.118348-2.50093-2.49907 1.120208-2.50093 2.50093-2.50093zm-86.00093 0c1.381236 0 2.5 1.120208 2.5 2.50093s-1.118764 2.49907-2.5 2.49907-2.5-1.118348-2.5-2.49907 1.118764-2.50093 2.5-2.50093zm107.00093 0c1.380722 0 2.49907 1.120208 2.49907 2.50093s-1.118348 2.49907-2.49907 2.49907-2.50093-1.118348-2.50093-2.49907 1.120208-2.50093 2.50093-2.50093zm-150.00186041-26c1.380722 0 2.50093041 1.120625 2.50093041 2.501862 0 1.381236-1.12020841 2.498138-2.50093041 2.498138-1.37886118 0-2.49906959-1.116902-2.49906959-2.498138 0-1.381237 1.12020841-2.501862 2.49906959-2.501862zm21.00000001 0c1.380722 0 2.5009304 1.120625 2.5009304 2.501862 0 1.381236-1.1202084 2.498138-2.5009304 2.498138s-2.4990696-1.116902-2.4990696-2.498138c0-1.381237 1.1183476-2.501862 2.4990696-2.501862zm22.0009304 0c1.381236 0 2.5 1.120625 2.5 2.501862 0 1.381236-1.118764 2.498138-2.5 2.498138s-2.5-1.116902-2.5-2.498138c0-1.381237 1.118764-2.501862 2.5-2.501862zm21.0009304 0c1.3788612 0 2.4990696 1.120625 2.4990696 2.501862 0 1.381236-1.1202084 2.498138-2.4990696 2.498138-1.3825828 0-2.5009304-1.116902-2.5009304-2.498138 0-1.381237 1.1183476-2.501862 2.5009304-2.501862zm22 0c1.3788612 0 2.4990696 1.120625 2.4990696 2.501862 0 1.381236-1.1202084 2.498138-2.4990696 2.498138-1.3825828 0-2.5009304-1.116902-2.5009304-2.498138 0-1.381237 1.1183476-2.501862 2.5009304-2.501862zm20.9981396 0c1.380722 0 2.50093 1.120625 2.50093 2.501862 0 1.381236-1.120208 2.498138-2.50093 2.498138s-2.49907-1.116902-2.49907-2.498138c0-1.381237 1.118348-2.501862 2.49907-2.501862zm22.00186 0c1.380722 0 2.49907 1.120625 2.49907 2.501862 0 1.381236-1.118348 2.498138-2.49907 2.498138s-2.50093-1.116902-2.50093-2.498138c0-1.381237 1.120208-2.501862 2.50093-2.501862zm21 0c1.380722 0 2.49907 1.120625 2.49907 2.501862 0 1.381236-1.118348 2.498138-2.49907 2.498138s-2.50093-1.116902-2.50093-2.498138c0-1.381237 1.120208-2.501862 2.50093-2.501862zm-85.9999996-25c1.3788612 0 2.4990696 1.118764 2.4990696 2.5 0 1.3830975-1.1202084 2.5-2.4990696 2.5-1.3825828 0-2.5009304-1.1169025-2.5009304-2.5 0-1.381236 1.1183476-2.5 2.5009304-2.5zm-43.0018608 0c1.380722 0 2.5009304 1.118764 2.5009304 2.5 0 1.3830975-1.1202084 2.5-2.5009304 2.5s-2.4990696-1.1169025-2.4990696-2.5c0-1.381236 1.1183476-2.5 2.4990696-2.5zm-21.00000001 0c1.380722 0 2.50093041 1.118764 2.50093041 2.5 0 1.3830975-1.12020841 2.5-2.50093041 2.5-1.37886118 0-2.49906959-1.1169025-2.49906959-2.5 0-1.381236 1.12020841-2.5 2.49906959-2.5zm86.00186081 0c1.3788612 0 2.4990696 1.118764 2.4990696 2.5 0 1.3830975-1.1202084 2.5-2.4990696 2.5-1.3825828 0-2.5009304-1.1169025-2.5009304-2.5 0-1.381236 1.1183476-2.5 2.5009304-2.5zm20.9981396 0c1.380722 0 2.50093 1.118764 2.50093 2.5 0 1.3830975-1.120208 2.5-2.50093 2.5s-2.49907-1.1169025-2.49907-2.5c0-1.381236 1.118348-2.5 2.49907-2.5zm43.00186 0c1.380722 0 2.49907 1.118764 2.49907 2.5 0 1.3830975-1.118348 2.5-2.49907 2.5s-2.50093-1.1169025-2.50093-2.5c0-1.381236 1.120208-2.5 2.50093-2.5zm-107.00093 0c1.381236 0 2.5 1.118764 2.5 2.5 0 1.3830975-1.118764 2.5-2.5 2.5s-2.5-1.1169025-2.5-2.5c0-1.381236 1.118764-2.5 2.5-2.5zm86.00093 0c1.380722 0 2.49907 1.118764 2.49907 2.5 0 1.3830975-1.118348 2.5-2.49907 2.5s-2.50093-1.1169025-2.50093-2.5c0-1.381236 1.120208-2.5 2.50093-2.5zm-22.00186-25c1.380722 0 2.50093 1.1202084 2.50093 2.5009304 0 1.3788612-1.120208 2.4990696-2.50093 2.4990696s-2.49907-1.1202084-2.49907-2.4990696c0-1.380722 1.118348-2.5009304 2.49907-2.5009304zm22.00186 0c1.380722 0 2.49907 1.1202084 2.49907 2.5009304 0 1.3788612-1.118348 2.4990696-2.49907 2.4990696s-2.50093-1.1202084-2.50093-2.4990696c0-1.380722 1.120208-2.5009304 2.50093-2.5009304zm-86.00093 0c1.381236 0 2.5 1.1202084 2.5 2.5009304 0 1.3788612-1.118764 2.4990696-2.5 2.4990696s-2.5-1.1202084-2.5-2.4990696c0-1.380722 1.118764-2.5009304 2.5-2.5009304zm-43.00093041 0c1.380722 0 2.50093041 1.1202084 2.50093041 2.5009304 0 1.3788612-1.12020841 2.4990696-2.50093041 2.4990696-1.37886118 0-2.49906959-1.1202084-2.49906959-2.4990696 0-1.380722 1.12020841-2.5009304 2.49906959-2.5009304zm86.00186081 0c1.3788612 0 2.4990696 1.1202084 2.4990696 2.5009304 0 1.3788612-1.1202084 2.4990696-2.4990696 2.4990696-1.3825828 0-2.5009304-1.1202084-2.5009304-2.4990696 0-1.380722 1.1183476-2.5009304 2.5009304-2.5009304zm63.9999996 0c1.380722 0 2.49907 1.1202084 2.49907 2.5009304 0 1.3788612-1.118348 2.4990696-2.49907 2.4990696s-2.50093-1.1202084-2.50093-2.4990696c0-1.380722 1.120208-2.5009304 2.50093-2.5009304zm-85.9999996 0c1.3788612 0 2.4990696 1.1202084 2.4990696 2.5009304 0 1.3788612-1.1202084 2.4990696-2.4990696 2.4990696-1.3825828 0-2.5009304-1.1202084-2.5009304-2.4990696 0-1.380722 1.1183476-2.5009304 2.5009304-2.5009304zm-43.0018608 0c1.380722 0 2.5009304 1.1202084 2.5009304 2.5009304 0 1.3788612-1.1202084 2.4990696-2.5009304 2.4990696s-2.4990696-1.1202084-2.4990696-2.4990696c0-1.380722 1.1183476-2.5009304 2.4990696-2.5009304zm-21.00000001-26c1.380722 0 2.50093041 1.118764 2.50093041 2.5018615 0 1.3793745-1.12020841 2.4981385-2.50093041 2.4981385-1.37886118 0-2.49906959-1.118764-2.49906959-2.4981385 0-1.3830975 1.12020841-2.5018615 2.49906959-2.5018615zm64.00186081 0c1.3788612 0 2.4990696 1.118764 2.4990696 2.5018615 0 1.3793745-1.1202084 2.4981385-2.4990696 2.4981385-1.3825828 0-2.5009304-1.118764-2.5009304-2.4981385 0-1.3830975 1.1183476-2.5018615 2.5009304-2.5018615zm22 0c1.3788612 0 2.4990696 1.118764 2.4990696 2.5018615 0 1.3793745-1.1202084 2.4981385-2.4990696 2.4981385-1.3825828 0-2.5009304-1.118764-2.5009304-2.4981385 0-1.3830975 1.1183476-2.5018615 2.5009304-2.5018615zm20.9981396 0c1.380722 0 2.50093 1.118764 2.50093 2.5018615 0 1.3793745-1.120208 2.4981385-2.50093 2.4981385s-2.49907-1.118764-2.49907-2.4981385c0-1.3830975 1.118348-2.5018615 2.49907-2.5018615zm22.00186 0c1.380722 0 2.49907 1.118764 2.49907 2.5018615 0 1.3793745-1.118348 2.4981385-2.49907 2.4981385s-2.50093-1.118764-2.50093-2.4981385c0-1.3830975 1.120208-2.5018615 2.50093-2.5018615zm21 0c1.380722 0 2.49907 1.118764 2.49907 2.5018615 0 1.3793745-1.118348 2.4981385-2.49907 2.4981385s-2.50093-1.118764-2.50093-2.4981385c0-1.3830975 1.120208-2.5018615 2.50093-2.5018615zm-129.0018604 0c1.380722 0 2.5009304 1.118764 2.5009304 2.5018615 0 1.3793745-1.1202084 2.4981385-2.5009304 2.4981385s-2.4990696-1.118764-2.4990696-2.4981385c0-1.3830975 1.1183476-2.5018615 2.4990696-2.5018615zm22.0009304 0c1.381236 0 2.5 1.118764 2.5 2.5018615 0 1.3793745-1.118764 2.4981385-2.5 2.4981385s-2.5-1.118764-2.5-2.4981385c0-1.3830975 1.118764-2.5018615 2.5-2.5018615zm-43.00093041-26c1.380722 0 2.50093041 1.12020841 2.50093041 2.50093041 0 1.37886118-1.12020841 2.49906959-2.50093041 2.49906959-1.37886118 0-2.49906959-1.12020841-2.49906959-2.49906959 0-1.380722 1.12020841-2.50093041 2.49906959-2.50093041zm21.00000001 0c1.380722 0 2.5009304 1.12020841 2.5009304 2.50093041 0 1.37886118-1.1202084 2.49906959-2.5009304 2.49906959s-2.4990696-1.12020841-2.4990696-2.49906959c0-1.380722 1.1183476-2.50093041 2.4990696-2.50093041zm22.0009304 0c1.381236 0 2.5 1.12020841 2.5 2.50093041 0 1.37886118-1.118764 2.49906959-2.5 2.49906959s-2.5-1.12020841-2.5-2.49906959c0-1.380722 1.118764-2.50093041 2.5-2.50093041zm21.0009304 0c1.3788612 0 2.4990696 1.12020841 2.4990696 2.50093041 0 1.37886118-1.1202084 2.49906959-2.4990696 2.49906959-1.3825828 0-2.5009304-1.12020841-2.5009304-2.49906959 0-1.380722 1.1183476-2.50093041 2.5009304-2.50093041zm22 0c1.3788612 0 2.4990696 1.12020841 2.4990696 2.50093041 0 1.37886118-1.1202084 2.49906959-2.4990696 2.49906959-1.3825828 0-2.5009304-1.12020841-2.5009304-2.49906959 0-1.380722 1.1183476-2.50093041 2.5009304-2.50093041zm20.9981396 0c1.380722 0 2.50093 1.12020841 2.50093 2.50093041 0 1.37886118-1.120208 2.49906959-2.50093 2.49906959s-2.49907-1.12020841-2.49907-2.49906959c0-1.380722 1.118348-2.50093041 2.49907-2.50093041zm22.00186 0c1.380722 0 2.49907 1.12020841 2.49907 2.50093041 0 1.37886118-1.118348 2.49906959-2.49907 2.49906959s-2.50093-1.12020841-2.50093-2.49906959c0-1.380722 1.120208-2.50093041 2.50093-2.50093041zm21 0c1.380722 0 2.49907 1.12020841 2.49907 2.50093041 0 1.37886118-1.118348 2.49906959-2.49907 2.49906959s-2.50093-1.12020841-2.50093-2.49906959c0-1.380722 1.120208-2.50093041 2.50093-2.50093041z" fill="#5f6de7" fill-rule="evenodd" opacity=".5"/></svg>