<svg height="142" viewBox="0 0 138 142" width="138" xmlns="http://www.w3.org/2000/svg"><path d="m136.000744 138c1.104578 0 1.999256.895011 1.999256 2 0 1.106478-.894678 2-1.999256 2-1.104577 0-2.000744-.893522-2.000744-2 0-1.104989.896167-2 2.000744-2zm-134.00148832 0c1.10457759 0 2.00074432.895011 2.00074432 2 0 1.106478-.89616673 2-2.00074432 2-1.10308895 0-1.99925568-.893522-1.99925568-2 0-1.104989.89616673-2 1.99925568-2zm19.00000002 0c1.1045776 0 2.0007443.895011 2.0007443 2 0 1.106478-.8961667 2-2.0007443 2s-1.9992557-.893522-1.9992557-2c0-1.104989.8946781-2 1.9992557-2zm19.0007443 0c1.1049888 0 2 .895011 2 2 0 1.106478-.8950112 2-2 2s-2-.893522-2-2c0-1.104989.8950112-2 2-2zm19.0007443 0c1.103089 0 1.9992557.895011 1.9992557 2 0 1.106478-.8961667 2-1.9992557 2-1.1060662 0-2.0007443-.893522-2.0007443-2 0-1.104989.8946781-2 2.0007443-2zm20 0c1.103089 0 1.9992557.895011 1.9992557 2 0 1.106478-.8961667 2-1.9992557 2-1.1060662 0-2.0007443-.893522-2.0007443-2 0-1.104989.8946781-2 2.0007443-2zm18.9985114 0c1.1045776 0 2.0007443.895011 2.0007443 2 0 1.106478-.8961667 2-2.0007443 2s-1.9992557-.893522-1.9992557-2c0-1.104989.8946781-2 1.9992557-2zm19.0014883 0c1.104578 0 1.999256.895011 1.999256 2 0 1.106478-.894678 2-1.999256 2-1.104577 0-2.000744-.893522-2.000744-2 0-1.104989.896167-2 2.000744-2zm-57.9999997-23c1.103089 0 1.9992557.896167 1.9992557 2.000744 0 1.104578-.8961667 1.999256-1.9992557 1.999256-1.1060662 0-2.0007443-.894678-2.0007443-1.999256 0-1.104577.8946781-2.000744 2.0007443-2.000744zm20 0c1.103089 0 1.9992557.896167 1.9992557 2.000744 0 1.104578-.8961667 1.999256-1.9992557 1.999256-1.1060662 0-2.0007443-.894678-2.0007443-1.999256 0-1.104577.8946781-2.000744 2.0007443-2.000744zm-77.00148862 0c1.10457759 0 2.00074432.896167 2.00074432 2.000744 0 1.104578-.89616673 1.999256-2.00074432 1.999256-1.10308895 0-1.99925568-.894678-1.99925568-1.999256 0-1.104577.89616673-2.000744 1.99925568-2.000744zm96.00000002 0c1.1045776 0 2.0007443.896167 2.0007443 2.000744 0 1.104578-.8961667 1.999256-2.0007443 1.999256s-1.9992557-.894678-1.9992557-1.999256c0-1.104577.8946781-2.000744 1.9992557-2.000744zm-77 0c1.1045776 0 2.0007443.896167 2.0007443 2.000744 0 1.104578-.8961667 1.999256-2.0007443 1.999256s-1.9992557-.894678-1.9992557-1.999256c0-1.104577.8946781-2.000744 1.9992557-2.000744zm96.0014883 0c1.104578 0 1.999256.896167 1.999256 2.000744 0 1.104578-.894678 1.999256-1.999256 1.999256-1.104577 0-2.000744-.894678-2.000744-1.999256 0-1.104577.896167-2.000744 2.000744-2.000744zm-77.000744 0c1.1049888 0 2 .896167 2 2.000744 0 1.104578-.8950112 1.999256-2 1.999256s-2-.894678-2-1.999256c0-1.104577.8950112-2.000744 2-2.000744zm96.000744 0c1.104578 0 1.999256.896167 1.999256 2.000744 0 1.104578-.894678 1.999256-1.999256 1.999256-1.104577 0-2.000744-.894678-2.000744-1.999256 0-1.104577.896167-2.000744 2.000744-2.000744zm-134.00148832-23c1.10457759 0 2.00074432.8965004 2.00074432 2.0014892s-.89616673 1.9985108-2.00074432 1.9985108c-1.10308895 0-1.99925568-.893522-1.99925568-1.9985108s.89616673-2.0014892 1.99925568-2.0014892zm19.00000002 0c1.1045776 0 2.0007443.8965004 2.0007443 2.0014892s-.8961667 1.9985108-2.0007443 1.9985108-1.9992557-.893522-1.9992557-1.9985108.8946781-2.0014892 1.9992557-2.0014892zm19.0007443 0c1.1049888 0 2 .8965004 2 2.0014892s-.8950112 1.9985108-2 1.9985108-2-.893522-2-1.9985108.8950112-2.0014892 2-2.0014892zm19.0007443 0c1.103089 0 1.9992557.8965004 1.9992557 2.0014892s-.8961667 1.9985108-1.9992557 1.9985108c-1.1060662 0-2.0007443-.893522-2.0007443-1.9985108s.8946781-2.0014892 2.0007443-2.0014892zm20 0c1.103089 0 1.9992557.8965004 1.9992557 2.0014892s-.8961667 1.9985108-1.9992557 1.9985108c-1.1060662 0-2.0007443-.893522-2.0007443-1.9985108s.8946781-2.0014892 2.0007443-2.0014892zm18.9985114 0c1.1045776 0 2.0007443.8965004 2.0007443 2.0014892s-.8961667 1.9985108-2.0007443 1.9985108-1.9992557-.893522-1.9992557-1.9985108.8946781-2.0014892 1.9992557-2.0014892zm19.0014883 0c1.104578 0 1.999256.8965004 1.999256 2.0014892s-.894678 1.9985108-1.999256 1.9985108c-1.104577 0-2.000744-.893522-2.000744-1.9985108s.896167-2.0014892 2.000744-2.0014892zm19 0c1.104578 0 1.999256.8965004 1.999256 2.0014892s-.894678 1.9985108-1.999256 1.9985108c-1.104577 0-2.000744-.893522-2.000744-1.9985108s.896167-2.0014892 2.000744-2.0014892zm-76.9999997-23c1.103089 0 1.9992557.8950112 1.9992557 2 0 1.106478-.8961667 2-1.9992557 2-1.1060662 0-2.0007443-.893522-2.0007443-2 0-1.1049888.8946781-2 2.0007443-2zm-38.0014886 0c1.1045776 0 2.0007443.8950112 2.0007443 2 0 1.106478-.8961667 2-2.0007443 2s-1.9992557-.893522-1.9992557-2c0-1.1049888.8946781-2 1.9992557-2zm-19.00000002 0c1.10457759 0 2.00074432.8950112 2.00074432 2 0 1.106478-.89616673 2-2.00074432 2-1.10308895 0-1.99925568-.893522-1.99925568-2 0-1.1049888.89616673-2 1.99925568-2zm77.00148862 0c1.103089 0 1.9992557.8950112 1.9992557 2 0 1.106478-.8961667 2-1.9992557 2-1.1060662 0-2.0007443-.893522-2.0007443-2 0-1.1049888.8946781-2 2.0007443-2zm18.9985114 0c1.1045776 0 2.0007443.8950112 2.0007443 2 0 1.106478-.8961667 2-2.0007443 2s-1.9992557-.893522-1.9992557-2c0-1.1049888.8946781-2 1.9992557-2zm38.0014883 0c1.104578 0 1.999256.8950112 1.999256 2 0 1.106478-.894678 2-1.999256 2-1.104577 0-2.000744-.893522-2.000744-2 0-1.1049888.896167-2 2.000744-2zm-96.000744 0c1.1049888 0 2 .8950112 2 2 0 1.106478-.8950112 2-2 2s-2-.893522-2-2c0-1.1049888.8950112-2 2-2zm77.000744 0c1.104578 0 1.999256.8950112 1.999256 2 0 1.106478-.894678 2-1.999256 2-1.104577 0-2.000744-.893522-2.000744-2 0-1.1049888.896167-2 2.000744-2zm-19.0014883-23c1.1045776 0 2.0007443.8961667 2.0007443 2.0007443 0 1.103089-.8961667 1.9992557-2.0007443 1.9992557s-1.9992557-.8961667-1.9992557-1.9992557c0-1.1045776.8946781-2.0007443 1.9992557-2.0007443zm19.0014883 0c1.104578 0 1.999256.8961667 1.999256 2.0007443 0 1.103089-.894678 1.9992557-1.999256 1.9992557-1.104577 0-2.000744-.8961667-2.000744-1.9992557 0-1.1045776.896167-2.0007443 2.000744-2.0007443zm-77.000744 0c1.1049888 0 2 .8961667 2 2.0007443 0 1.103089-.8950112 1.9992557-2 1.9992557s-2-.8961667-2-1.9992557c0-1.1045776.8950112-2.0007443 2-2.0007443zm-38.00074432 0c1.10457759 0 2.00074432.8961667 2.00074432 2.0007443 0 1.103089-.89616673 1.9992557-2.00074432 1.9992557-1.10308895 0-1.99925568-.8961667-1.99925568-1.9992557 0-1.1045776.89616673-2.0007443 1.99925568-2.0007443zm77.00148862 0c1.103089 0 1.9992557.8961667 1.9992557 2.0007443 0 1.103089-.8961667 1.9992557-1.9992557 1.9992557-1.1060662 0-2.0007443-.8961667-2.0007443-1.9992557 0-1.1045776.8946781-2.0007443 2.0007443-2.0007443zm56.9999997 0c1.104578 0 1.999256.8961667 1.999256 2.0007443 0 1.103089-.894678 1.9992557-1.999256 1.9992557-1.104577 0-2.000744-.8961667-2.000744-1.9992557 0-1.1045776.896167-2.0007443 2.000744-2.0007443zm-76.9999997 0c1.103089 0 1.9992557.8961667 1.9992557 2.0007443 0 1.103089-.8961667 1.9992557-1.9992557 1.9992557-1.1060662 0-2.0007443-.8961667-2.0007443-1.9992557 0-1.1045776.8946781-2.0007443 2.0007443-2.0007443zm-38.0014886 0c1.1045776 0 2.0007443.8961667 2.0007443 2.0007443 0 1.103089-.8961667 1.9992557-2.0007443 1.9992557s-1.9992557-.8961667-1.9992557-1.9992557c0-1.1045776.8946781-2.0007443 1.9992557-2.0007443zm-19.00000002-23c1.10457759 0 2.00074432.8950112 2.00074432 2.0014892 0 1.1034996-.89616673 1.9985108-2.00074432 1.9985108-1.10308895 0-1.99925568-.8950112-1.99925568-1.9985108 0-1.106478.89616673-2.0014892 1.99925568-2.0014892zm57.00148862 0c1.103089 0 1.9992557.8950112 1.9992557 2.0014892 0 1.1034996-.8961667 1.9985108-1.9992557 1.9985108-1.1060662 0-2.0007443-.8950112-2.0007443-1.9985108 0-1.106478.8946781-2.0014892 2.0007443-2.0014892zm20 0c1.103089 0 1.9992557.8950112 1.9992557 2.0014892 0 1.1034996-.8961667 1.9985108-1.9992557 1.9985108-1.1060662 0-2.0007443-.8950112-2.0007443-1.9985108 0-1.106478.8946781-2.0014892 2.0007443-2.0014892zm18.9985114 0c1.1045776 0 2.0007443.8950112 2.0007443 2.0014892 0 1.1034996-.8961667 1.9985108-2.0007443 1.9985108s-1.9992557-.8950112-1.9992557-1.9985108c0-1.106478.8946781-2.0014892 1.9992557-2.0014892zm19.0014883 0c1.104578 0 1.999256.8950112 1.999256 2.0014892 0 1.1034996-.894678 1.9985108-1.999256 1.9985108-1.104577 0-2.000744-.8950112-2.000744-1.9985108 0-1.106478.896167-2.0014892 2.000744-2.0014892zm19 0c1.104578 0 1.999256.8950112 1.999256 2.0014892 0 1.1034996-.894678 1.9985108-1.999256 1.9985108-1.104577 0-2.000744-.8950112-2.000744-1.9985108 0-1.106478.896167-2.0014892 2.000744-2.0014892zm-115.0014883 0c1.1045776 0 2.0007443.8950112 2.0007443 2.0014892 0 1.1034996-.8961667 1.9985108-2.0007443 1.9985108s-1.9992557-.8950112-1.9992557-1.9985108c0-1.106478.8946781-2.0014892 1.9992557-2.0014892zm19.0007443 0c1.1049888 0 2 .8950112 2 2.0014892 0 1.1034996-.8950112 1.9985108-2 1.9985108s-2-.8950112-2-1.9985108c0-1.106478.8950112-2.0014892 2-2.0014892zm-38.00074432-23c1.10457759 0 2.00074432.89616673 2.00074432 2.00074432 0 1.10308895-.89616673 1.99925568-2.00074432 1.99925568-1.10308895 0-1.99925568-.89616673-1.99925568-1.99925568 0-1.10457759.89616673-2.00074432 1.99925568-2.00074432zm19.00000002 0c1.1045776 0 2.0007443.89616673 2.0007443 2.00074432 0 1.10308895-.8961667 1.99925568-2.0007443 1.99925568s-1.9992557-.89616673-1.9992557-1.99925568c0-1.10457759.8946781-2.00074432 1.9992557-2.00074432zm19.0007443 0c1.1049888 0 2 .89616673 2 2.00074432 0 1.10308895-.8950112 1.99925568-2 1.99925568s-2-.89616673-2-1.99925568c0-1.10457759.8950112-2.00074432 2-2.00074432zm19.0007443 0c1.103089 0 1.9992557.89616673 1.9992557 2.00074432 0 1.10308895-.8961667 1.99925568-1.9992557 1.99925568-1.1060662 0-2.0007443-.89616673-2.0007443-1.99925568 0-1.10457759.8946781-2.00074432 2.0007443-2.00074432zm20 0c1.103089 0 1.9992557.89616673 1.9992557 2.00074432 0 1.10308895-.8961667 1.99925568-1.9992557 1.99925568-1.1060662 0-2.0007443-.89616673-2.0007443-1.99925568 0-1.10457759.8946781-2.00074432 2.0007443-2.00074432zm18.9985114 0c1.1045776 0 2.0007443.89616673 2.0007443 2.00074432 0 1.10308895-.8961667 1.99925568-2.0007443 1.99925568s-1.9992557-.89616673-1.9992557-1.99925568c0-1.10457759.8946781-2.00074432 1.9992557-2.00074432zm19.0014883 0c1.104578 0 1.999256.89616673 1.999256 2.00074432 0 1.10308895-.894678 1.99925568-1.999256 1.99925568-1.104577 0-2.000744-.89616673-2.000744-1.99925568 0-1.10457759.896167-2.00074432 2.000744-2.00074432zm19 0c1.104578 0 1.999256.89616673 1.999256 2.00074432 0 1.10308895-.894678 1.99925568-1.999256 1.99925568-1.104577 0-2.000744-.89616673-2.000744-1.99925568 0-1.10457759.896167-2.00074432 2.000744-2.00074432z" fill="#0b9ad2" fill-rule="evenodd" opacity=".5"/></svg>